<svg width="428" height="965" viewBox="0 0 428 965" fill="none" xmlns="http://www.w3.org/2000/svg">
<g clip-path="url(#clip0_176_547)">
<rect width="428" height="965" fill="white"/>
<path d="M0 -11H202.197H428V887C326.388 722.278 309.453 972.549 173.658 839.177C104.639 771.391 92.203 707.931 0 775.946V-11Z" fill="url(#paint0_linear_176_547)"/>
<path d="M170.998 36.4951L171.169 29.4746H172.577L172.748 36.4951H170.998ZM172.796 27.3486C172.796 27.5947 172.712 27.8044 172.543 27.9775C172.379 28.1462 172.149 28.2305 171.853 28.2305C171.561 28.2305 171.331 28.1462 171.162 27.9775C170.993 27.8044 170.909 27.5947 170.909 27.3486C170.909 27.1025 170.993 26.8952 171.162 26.7266C171.331 26.5579 171.561 26.4736 171.853 26.4736C172.149 26.4736 172.379 26.5579 172.543 26.7266C172.712 26.8952 172.796 27.1025 172.796 27.3486ZM174.73 24.0469H178.251C179.007 24.0469 179.652 24.1608 180.186 24.3887C180.719 24.6165 181.127 24.9538 181.409 25.4004C181.696 25.8424 181.84 26.3893 181.84 27.041C181.84 27.5378 181.749 27.9753 181.566 28.3535C181.384 28.7318 181.127 29.0508 180.794 29.3105C180.461 29.5658 180.065 29.764 179.604 29.9053L179.085 30.1582H175.92L175.906 28.7979H178.278C178.688 28.7979 179.03 28.7249 179.304 28.5791C179.577 28.4333 179.782 28.235 179.919 27.9844C180.06 27.7292 180.131 27.4421 180.131 27.123C180.131 26.7767 180.062 26.4759 179.926 26.2207C179.794 25.9609 179.589 25.7627 179.311 25.626C179.033 25.4847 178.679 25.4141 178.251 25.4141H176.446V34H174.73V24.0469ZM180.411 34L178.073 29.5293L179.871 29.5225L182.243 33.9111V34H180.411ZM186.646 34.1367C186.099 34.1367 185.604 34.0479 185.162 33.8701C184.725 33.6878 184.351 33.4349 184.041 33.1113C183.736 32.7878 183.501 32.4072 183.337 31.9697C183.173 31.5322 183.091 31.0605 183.091 30.5547V30.2812C183.091 29.7025 183.175 29.1784 183.344 28.709C183.512 28.2396 183.747 27.8385 184.048 27.5059C184.349 27.1686 184.704 26.9111 185.114 26.7334C185.524 26.5557 185.969 26.4668 186.447 26.4668C186.976 26.4668 187.438 26.5557 187.835 26.7334C188.231 26.9111 188.56 27.1618 188.819 27.4854C189.084 27.8044 189.28 28.1849 189.407 28.627C189.539 29.069 189.605 29.5566 189.605 30.0898V30.7939H183.891V29.6113H187.979V29.4814C187.969 29.1852 187.91 28.9072 187.801 28.6475C187.696 28.3877 187.534 28.1781 187.315 28.0186C187.097 27.859 186.805 27.7793 186.44 27.7793C186.167 27.7793 185.923 27.8385 185.709 27.957C185.499 28.071 185.324 28.2373 185.183 28.4561C185.041 28.6748 184.932 28.9391 184.854 29.249C184.782 29.5544 184.745 29.8984 184.745 30.2812V30.5547C184.745 30.8783 184.788 31.179 184.875 31.457C184.966 31.7305 185.098 31.9697 185.271 32.1748C185.445 32.3799 185.654 32.5417 185.9 32.6602C186.146 32.7741 186.427 32.8311 186.741 32.8311C187.138 32.8311 187.491 32.7513 187.801 32.5918C188.111 32.4323 188.38 32.2067 188.607 31.915L189.476 32.7559C189.316 32.9883 189.109 33.2116 188.854 33.4258C188.598 33.6354 188.286 33.8063 187.917 33.9385C187.552 34.0706 187.129 34.1367 186.646 34.1367ZM195.628 26.6035H197.125V33.7949C197.125 34.4603 196.984 35.0254 196.701 35.4902C196.419 35.9551 196.024 36.3083 195.519 36.5498C195.013 36.7959 194.427 36.9189 193.762 36.9189C193.479 36.9189 193.165 36.8779 192.818 36.7959C192.477 36.7139 192.144 36.5817 191.82 36.3994C191.501 36.2217 191.235 35.987 191.021 35.6953L191.793 34.7246C192.057 35.0391 192.349 35.2692 192.668 35.415C192.987 35.5609 193.322 35.6338 193.673 35.6338C194.051 35.6338 194.372 35.5632 194.637 35.4219C194.906 35.2852 195.113 35.0824 195.259 34.8135C195.405 34.5446 195.478 34.2165 195.478 33.8291V28.2783L195.628 26.6035ZM190.604 30.3838V30.2402C190.604 29.6797 190.672 29.1693 190.809 28.709C190.945 28.2441 191.141 27.8454 191.396 27.5127C191.652 27.1755 191.962 26.918 192.326 26.7402C192.691 26.5579 193.103 26.4668 193.563 26.4668C194.042 26.4668 194.45 26.5534 194.787 26.7266C195.129 26.8997 195.414 27.1481 195.642 27.4717C195.869 27.7907 196.047 28.1735 196.175 28.6201C196.307 29.0622 196.405 29.5544 196.469 30.0967V30.5547C196.41 31.0833 196.309 31.5664 196.168 32.0039C196.027 32.4414 195.84 32.8197 195.607 33.1387C195.375 33.4577 195.088 33.7038 194.746 33.877C194.409 34.0501 194.01 34.1367 193.55 34.1367C193.099 34.1367 192.691 34.0433 192.326 33.8564C191.966 33.6696 191.656 33.4076 191.396 33.0703C191.141 32.7331 190.945 32.3366 190.809 31.8809C190.672 31.4206 190.604 30.9215 190.604 30.3838ZM192.251 30.2402V30.3838C192.251 30.721 192.283 31.0355 192.347 31.3271C192.415 31.6188 192.518 31.8763 192.654 32.0996C192.796 32.3184 192.973 32.4915 193.188 32.6191C193.406 32.7422 193.664 32.8037 193.96 32.8037C194.347 32.8037 194.664 32.7217 194.91 32.5576C195.161 32.3936 195.352 32.1725 195.484 31.8945C195.621 31.612 195.717 31.2975 195.771 30.9512V29.7139C195.744 29.445 195.687 29.1943 195.601 28.9619C195.519 28.7295 195.407 28.5267 195.266 28.3535C195.124 28.1758 194.947 28.0391 194.732 27.9434C194.518 27.8431 194.265 27.793 193.974 27.793C193.677 27.793 193.42 27.8568 193.201 27.9844C192.982 28.112 192.802 28.2874 192.661 28.5107C192.524 28.734 192.422 28.9938 192.354 29.29C192.285 29.5863 192.251 29.903 192.251 30.2402ZM200.618 26.6035V34H198.971V26.6035H200.618ZM198.984 25.6191L200.317 23.5615H202.177L200.317 25.6191H198.984ZM206.647 31.9971C206.647 31.833 206.606 31.6849 206.524 31.5527C206.442 31.416 206.285 31.293 206.053 31.1836C205.825 31.0742 205.488 30.974 205.041 30.8828C204.649 30.7962 204.289 30.6937 203.961 30.5752C203.637 30.4521 203.359 30.304 203.127 30.1309C202.895 29.9577 202.715 29.7526 202.587 29.5156C202.459 29.2786 202.396 29.0052 202.396 28.6953C202.396 28.3945 202.462 28.1097 202.594 27.8408C202.726 27.5719 202.915 27.335 203.161 27.1299C203.407 26.9248 203.706 26.763 204.057 26.6445C204.412 26.526 204.809 26.4668 205.246 26.4668C205.866 26.4668 206.397 26.5716 206.839 26.7812C207.285 26.9863 207.627 27.2666 207.864 27.6221C208.101 27.973 208.22 28.3695 208.22 28.8115H206.572C206.572 28.6156 206.522 28.4333 206.422 28.2646C206.326 28.0915 206.18 27.9525 205.984 27.8477C205.788 27.7383 205.542 27.6836 205.246 27.6836C204.964 27.6836 204.729 27.7292 204.542 27.8203C204.36 27.9069 204.223 28.0208 204.132 28.1621C204.045 28.3034 204.002 28.4583 204.002 28.627C204.002 28.75 204.025 28.8617 204.07 28.9619C204.12 29.0576 204.202 29.1465 204.316 29.2285C204.43 29.306 204.585 29.3789 204.781 29.4473C204.982 29.5156 205.232 29.5817 205.533 29.6455C206.098 29.764 206.584 29.9167 206.989 30.1035C207.399 30.2858 207.714 30.5228 207.933 30.8145C208.151 31.1016 208.261 31.4661 208.261 31.9082C208.261 32.2363 208.19 32.5371 208.049 32.8105C207.912 33.0794 207.712 33.3141 207.447 33.5146C207.183 33.7106 206.866 33.8633 206.497 33.9727C206.132 34.082 205.722 34.1367 205.267 34.1367C204.597 34.1367 204.029 34.0182 203.564 33.7812C203.1 33.5397 202.746 33.2321 202.505 32.8584C202.268 32.4801 202.149 32.0882 202.149 31.6826H203.742C203.76 31.988 203.845 32.2318 203.995 32.4141C204.15 32.5918 204.341 32.7217 204.569 32.8037C204.802 32.8812 205.041 32.9199 205.287 32.9199C205.583 32.9199 205.832 32.8812 206.032 32.8037C206.233 32.7217 206.385 32.6123 206.49 32.4756C206.595 32.3343 206.647 32.1748 206.647 31.9971ZM213.094 26.6035V27.8066H208.924V26.6035H213.094ZM210.127 24.792H211.774V31.9561C211.774 32.1839 211.806 32.3594 211.87 32.4824C211.938 32.6009 212.032 32.6807 212.15 32.7217C212.269 32.7627 212.408 32.7832 212.567 32.7832C212.681 32.7832 212.791 32.7764 212.896 32.7627C213 32.749 213.085 32.7354 213.148 32.7217L213.155 33.9795C213.019 34.0205 212.859 34.057 212.677 34.0889C212.499 34.1208 212.294 34.1367 212.062 34.1367C211.683 34.1367 211.348 34.0706 211.057 33.9385C210.765 33.8018 210.537 33.5807 210.373 33.2754C210.209 32.9701 210.127 32.5645 210.127 32.0586V24.792ZM216.02 28.0117V34H214.372V26.6035H215.944L216.02 28.0117ZM218.282 26.5557L218.269 28.0869C218.168 28.0687 218.059 28.055 217.94 28.0459C217.826 28.0368 217.713 28.0322 217.599 28.0322C217.316 28.0322 217.068 28.0732 216.854 28.1553C216.639 28.2327 216.459 28.3467 216.313 28.4971C216.172 28.6429 216.063 28.8206 215.985 29.0303C215.908 29.2399 215.862 29.4746 215.849 29.7344L215.473 29.7617C215.473 29.2969 215.518 28.8662 215.609 28.4697C215.701 28.0732 215.837 27.7246 216.02 27.4238C216.206 27.123 216.439 26.8883 216.717 26.7197C216.999 26.5511 217.325 26.4668 217.694 26.4668C217.795 26.4668 217.902 26.4759 218.016 26.4941C218.134 26.5124 218.223 26.5329 218.282 26.5557ZM223.238 32.5166V28.9893C223.238 28.7249 223.19 28.4971 223.095 28.3057C222.999 28.1143 222.853 27.9661 222.657 27.8613C222.466 27.7565 222.224 27.7041 221.933 27.7041C221.664 27.7041 221.431 27.7497 221.235 27.8408C221.039 27.932 220.887 28.055 220.777 28.21C220.668 28.3649 220.613 28.5404 220.613 28.7363H218.973C218.973 28.4447 219.043 28.1621 219.185 27.8887C219.326 27.6152 219.531 27.3714 219.8 27.1572C220.069 26.943 220.39 26.7744 220.764 26.6514C221.137 26.5283 221.557 26.4668 222.021 26.4668C222.577 26.4668 223.07 26.5602 223.498 26.7471C223.931 26.9339 224.271 27.2165 224.517 27.5947C224.767 27.9684 224.893 28.4378 224.893 29.0029V32.291C224.893 32.6283 224.915 32.9313 224.961 33.2002C225.011 33.4645 225.082 33.6947 225.173 33.8906V34H223.484C223.407 33.8223 223.345 33.5967 223.3 33.3232C223.259 33.0452 223.238 32.7764 223.238 32.5166ZM223.478 29.502L223.491 30.5205H222.309C222.003 30.5205 221.734 30.5501 221.502 30.6094C221.27 30.6641 221.076 30.7461 220.921 30.8555C220.766 30.9648 220.65 31.097 220.572 31.252C220.495 31.4069 220.456 31.5824 220.456 31.7783C220.456 31.9743 220.502 32.1543 220.593 32.3184C220.684 32.4779 220.816 32.6032 220.989 32.6943C221.167 32.7855 221.381 32.8311 221.632 32.8311C221.969 32.8311 222.263 32.7627 222.514 32.626C222.769 32.4847 222.969 32.3138 223.115 32.1133C223.261 31.9082 223.339 31.7145 223.348 31.5322L223.881 32.2637C223.826 32.4505 223.733 32.651 223.601 32.8652C223.468 33.0794 223.295 33.2845 223.081 33.4805C222.871 33.6719 222.618 33.8291 222.322 33.9521C222.031 34.0752 221.693 34.1367 221.311 34.1367C220.827 34.1367 220.397 34.041 220.019 33.8496C219.64 33.6536 219.344 33.3916 219.13 33.0635C218.916 32.7308 218.809 32.3548 218.809 31.9355C218.809 31.5436 218.882 31.1973 219.027 30.8965C219.178 30.5911 219.396 30.3359 219.684 30.1309C219.975 29.9258 220.331 29.7708 220.75 29.666C221.169 29.5566 221.648 29.502 222.186 29.502H223.478ZM230.006 26.6035V27.8066H225.836V26.6035H230.006ZM227.039 24.792H228.687V31.9561C228.687 32.1839 228.718 32.3594 228.782 32.4824C228.851 32.6009 228.944 32.6807 229.062 32.7217C229.181 32.7627 229.32 32.7832 229.479 32.7832C229.593 32.7832 229.703 32.7764 229.808 32.7627C229.912 32.749 229.997 32.7354 230.061 32.7217L230.067 33.9795C229.931 34.0205 229.771 34.057 229.589 34.0889C229.411 34.1208 229.206 34.1367 228.974 34.1367C228.595 34.1367 228.26 34.0706 227.969 33.9385C227.677 33.8018 227.449 33.5807 227.285 33.2754C227.121 32.9701 227.039 32.5645 227.039 32.0586V24.792ZM234.538 34.1367C233.991 34.1367 233.497 34.0479 233.055 33.8701C232.617 33.6878 232.243 33.4349 231.934 33.1113C231.628 32.7878 231.394 32.4072 231.229 31.9697C231.065 31.5322 230.983 31.0605 230.983 30.5547V30.2812C230.983 29.7025 231.068 29.1784 231.236 28.709C231.405 28.2396 231.64 27.8385 231.94 27.5059C232.241 27.1686 232.597 26.9111 233.007 26.7334C233.417 26.5557 233.861 26.4668 234.34 26.4668C234.868 26.4668 235.331 26.5557 235.728 26.7334C236.124 26.9111 236.452 27.1618 236.712 27.4854C236.976 27.8044 237.172 28.1849 237.3 28.627C237.432 29.069 237.498 29.5566 237.498 30.0898V30.7939H231.783V29.6113H235.871V29.4814C235.862 29.1852 235.803 28.9072 235.693 28.6475C235.589 28.3877 235.427 28.1781 235.208 28.0186C234.989 27.859 234.698 27.7793 234.333 27.7793C234.06 27.7793 233.816 27.8385 233.602 27.957C233.392 28.071 233.216 28.2373 233.075 28.4561C232.934 28.6748 232.825 28.9391 232.747 29.249C232.674 29.5544 232.638 29.8984 232.638 30.2812V30.5547C232.638 30.8783 232.681 31.179 232.768 31.457C232.859 31.7305 232.991 31.9697 233.164 32.1748C233.337 32.3799 233.547 32.5417 233.793 32.6602C234.039 32.7741 234.319 32.8311 234.634 32.8311C235.03 32.8311 235.383 32.7513 235.693 32.5918C236.003 32.4323 236.272 32.2067 236.5 31.915L237.368 32.7559C237.209 32.9883 237.001 33.2116 236.746 33.4258C236.491 33.6354 236.179 33.8063 235.81 33.9385C235.445 34.0706 235.021 34.1367 234.538 34.1367ZM246.439 32.5166V28.9893C246.439 28.7249 246.392 28.4971 246.296 28.3057C246.2 28.1143 246.054 27.9661 245.858 27.8613C245.667 27.7565 245.425 27.7041 245.134 27.7041C244.865 27.7041 244.632 27.7497 244.437 27.8408C244.241 27.932 244.088 28.055 243.979 28.21C243.869 28.3649 243.814 28.5404 243.814 28.7363H242.174C242.174 28.4447 242.244 28.1621 242.386 27.8887C242.527 27.6152 242.732 27.3714 243.001 27.1572C243.27 26.943 243.591 26.7744 243.965 26.6514C244.339 26.5283 244.758 26.4668 245.223 26.4668C245.779 26.4668 246.271 26.5602 246.699 26.7471C247.132 26.9339 247.472 27.2165 247.718 27.5947C247.968 27.9684 248.094 28.4378 248.094 29.0029V32.291C248.094 32.6283 248.117 32.9313 248.162 33.2002C248.212 33.4645 248.283 33.6947 248.374 33.8906V34H246.686C246.608 33.8223 246.547 33.5967 246.501 33.3232C246.46 33.0452 246.439 32.7764 246.439 32.5166ZM246.679 29.502L246.692 30.5205H245.51C245.204 30.5205 244.936 30.5501 244.703 30.6094C244.471 30.6641 244.277 30.7461 244.122 30.8555C243.967 30.9648 243.851 31.097 243.773 31.252C243.696 31.4069 243.657 31.5824 243.657 31.7783C243.657 31.9743 243.703 32.1543 243.794 32.3184C243.885 32.4779 244.017 32.6032 244.19 32.6943C244.368 32.7855 244.582 32.8311 244.833 32.8311C245.17 32.8311 245.464 32.7627 245.715 32.626C245.97 32.4847 246.171 32.3138 246.316 32.1133C246.462 31.9082 246.54 31.7145 246.549 31.5322L247.082 32.2637C247.027 32.4505 246.934 32.651 246.802 32.8652C246.67 33.0794 246.496 33.2845 246.282 33.4805C246.073 33.6719 245.82 33.8291 245.523 33.9521C245.232 34.0752 244.895 34.1367 244.512 34.1367C244.029 34.1367 243.598 34.041 243.22 33.8496C242.841 33.6536 242.545 33.3916 242.331 33.0635C242.117 32.7308 242.01 32.3548 242.01 31.9355C242.01 31.5436 242.083 31.1973 242.229 30.8965C242.379 30.5911 242.598 30.3359 242.885 30.1309C243.176 29.9258 243.532 29.7708 243.951 29.666C244.37 29.5566 244.849 29.502 245.387 29.502H246.679ZM251.443 23.5V34H249.803V23.5H251.443ZM251.156 30.0283L250.623 30.0215C250.628 29.5111 250.698 29.0394 250.835 28.6064C250.976 28.1735 251.172 27.7975 251.423 27.4785C251.678 27.1549 251.983 26.9066 252.339 26.7334C252.694 26.5557 253.089 26.4668 253.521 26.4668C253.886 26.4668 254.214 26.5169 254.506 26.6172C254.802 26.7174 255.057 26.8792 255.271 27.1025C255.486 27.3213 255.647 27.6084 255.757 27.9639C255.871 28.3148 255.928 28.7432 255.928 29.249V34H254.273V29.2354C254.273 28.8799 254.221 28.5973 254.116 28.3877C254.016 28.1781 253.868 28.0277 253.672 27.9365C253.476 27.8408 253.237 27.793 252.954 27.793C252.658 27.793 252.396 27.8522 252.168 27.9707C251.945 28.0892 251.758 28.251 251.607 28.4561C251.457 28.6611 251.343 28.8981 251.266 29.167C251.193 29.4359 251.156 29.723 251.156 30.0283ZM257.281 30.3838V30.2266C257.281 29.6934 257.359 29.1989 257.514 28.7432C257.669 28.2829 257.892 27.8841 258.184 27.5469C258.48 27.2051 258.84 26.9408 259.264 26.7539C259.692 26.5625 260.175 26.4668 260.713 26.4668C261.255 26.4668 261.738 26.5625 262.162 26.7539C262.59 26.9408 262.953 27.2051 263.249 27.5469C263.545 27.8841 263.771 28.2829 263.926 28.7432C264.081 29.1989 264.158 29.6934 264.158 30.2266V30.3838C264.158 30.917 264.081 31.4115 263.926 31.8672C263.771 32.3229 263.545 32.7217 263.249 33.0635C262.953 33.4007 262.593 33.665 262.169 33.8564C261.745 34.0433 261.264 34.1367 260.727 34.1367C260.184 34.1367 259.699 34.0433 259.271 33.8564C258.847 33.665 258.487 33.4007 258.19 33.0635C257.894 32.7217 257.669 32.3229 257.514 31.8672C257.359 31.4115 257.281 30.917 257.281 30.3838ZM258.929 30.2266V30.3838C258.929 30.7165 258.963 31.0309 259.031 31.3271C259.1 31.6234 259.207 31.8831 259.353 32.1064C259.498 32.3298 259.685 32.5052 259.913 32.6328C260.141 32.7604 260.412 32.8242 260.727 32.8242C261.032 32.8242 261.296 32.7604 261.52 32.6328C261.747 32.5052 261.934 32.3298 262.08 32.1064C262.226 31.8831 262.333 31.6234 262.401 31.3271C262.474 31.0309 262.511 30.7165 262.511 30.3838V30.2266C262.511 29.8984 262.474 29.5885 262.401 29.2969C262.333 29.0007 262.224 28.7386 262.073 28.5107C261.927 28.2829 261.741 28.1051 261.513 27.9775C261.289 27.8454 261.023 27.7793 260.713 27.7793C260.403 27.7793 260.134 27.8454 259.906 27.9775C259.683 28.1051 259.498 28.2829 259.353 28.5107C259.207 28.7386 259.1 29.0007 259.031 29.2969C258.963 29.5885 258.929 29.8984 258.929 30.2266ZM267.193 28.0117V34H265.546V26.6035H267.118L267.193 28.0117ZM269.456 26.5557L269.442 28.0869C269.342 28.0687 269.233 28.055 269.114 28.0459C269 28.0368 268.886 28.0322 268.772 28.0322C268.49 28.0322 268.242 28.0732 268.027 28.1553C267.813 28.2327 267.633 28.3467 267.487 28.4971C267.346 28.6429 267.237 28.8206 267.159 29.0303C267.082 29.2399 267.036 29.4746 267.022 29.7344L266.646 29.7617C266.646 29.2969 266.692 28.8662 266.783 28.4697C266.874 28.0732 267.011 27.7246 267.193 27.4238C267.38 27.123 267.613 26.8883 267.891 26.7197C268.173 26.5511 268.499 26.4668 268.868 26.4668C268.968 26.4668 269.076 26.4759 269.189 26.4941C269.308 26.5124 269.397 26.5329 269.456 26.5557ZM274.412 32.5166V28.9893C274.412 28.7249 274.364 28.4971 274.269 28.3057C274.173 28.1143 274.027 27.9661 273.831 27.8613C273.64 27.7565 273.398 27.7041 273.106 27.7041C272.838 27.7041 272.605 27.7497 272.409 27.8408C272.213 27.932 272.061 28.055 271.951 28.21C271.842 28.3649 271.787 28.5404 271.787 28.7363H270.146C270.146 28.4447 270.217 28.1621 270.358 27.8887C270.5 27.6152 270.705 27.3714 270.974 27.1572C271.243 26.943 271.564 26.7744 271.938 26.6514C272.311 26.5283 272.73 26.4668 273.195 26.4668C273.751 26.4668 274.243 26.5602 274.672 26.7471C275.105 26.9339 275.444 27.2165 275.69 27.5947C275.941 27.9684 276.066 28.4378 276.066 29.0029V32.291C276.066 32.6283 276.089 32.9313 276.135 33.2002C276.185 33.4645 276.256 33.6947 276.347 33.8906V34H274.658C274.581 33.8223 274.519 33.5967 274.474 33.3232C274.433 33.0452 274.412 32.7764 274.412 32.5166ZM274.651 29.502L274.665 30.5205H273.482C273.177 30.5205 272.908 30.5501 272.676 30.6094C272.443 30.6641 272.25 30.7461 272.095 30.8555C271.94 30.9648 271.824 31.097 271.746 31.252C271.669 31.4069 271.63 31.5824 271.63 31.7783C271.63 31.9743 271.675 32.1543 271.767 32.3184C271.858 32.4779 271.99 32.6032 272.163 32.6943C272.341 32.7855 272.555 32.8311 272.806 32.8311C273.143 32.8311 273.437 32.7627 273.688 32.626C273.943 32.4847 274.143 32.3138 274.289 32.1133C274.435 31.9082 274.512 31.7145 274.521 31.5322L275.055 32.2637C275 32.4505 274.907 32.651 274.774 32.8652C274.642 33.0794 274.469 33.2845 274.255 33.4805C274.045 33.6719 273.792 33.8291 273.496 33.9521C273.204 34.0752 272.867 34.1367 272.484 34.1367C272.001 34.1367 271.571 34.041 271.192 33.8496C270.814 33.6536 270.518 33.3916 270.304 33.0635C270.09 32.7308 269.982 32.3548 269.982 31.9355C269.982 31.5436 270.055 31.1973 270.201 30.8965C270.352 30.5911 270.57 30.3359 270.857 30.1309C271.149 29.9258 271.505 29.7708 271.924 29.666C272.343 29.5566 272.822 29.502 273.359 29.502H274.651ZM279.689 24.0469L279.525 31.0674H278.117L277.946 24.0469H279.689ZM277.898 33.2207C277.898 32.9701 277.98 32.7604 278.145 32.5918C278.313 32.4186 278.546 32.332 278.842 32.332C279.133 32.332 279.364 32.4186 279.532 32.5918C279.701 32.7604 279.785 32.9701 279.785 33.2207C279.785 33.4622 279.701 33.6696 279.532 33.8428C279.364 34.0114 279.133 34.0957 278.842 34.0957C278.546 34.0957 278.313 34.0114 278.145 33.8428C277.98 33.6696 277.898 33.4622 277.898 33.2207Z" fill="#00A6EA"/>
<g clip-path="url(#clip1_176_547)">
<path opacity="0.1" d="M161.426 881.911C174.818 881.911 185.675 880.496 185.675 878.752C185.675 877.007 174.818 875.593 161.426 875.593C148.034 875.593 137.177 877.007 137.177 878.752C137.177 880.496 148.034 881.911 161.426 881.911Z" fill="#6C63FF"/>
<path opacity="0.1" d="M293.24 882C309.951 882 323.499 880.585 323.499 878.841C323.499 877.096 309.951 875.682 293.24 875.682C276.528 875.682 262.981 877.096 262.981 878.841C262.981 880.585 276.528 882 293.24 882Z" fill="#6C63FF"/>
<path opacity="0.1" d="M73.4444 792.268H98.7012V820.19H75.2934C75.2312 820.477 75.1715 820.765 75.1068 821.054H98.7012V843.573C98.6589 843.563 98.6215 843.551 98.5817 843.539C97.9148 843.325 97.2528 843.099 96.5908 842.856L96.1678 842.701C95.5041 842.447 94.8405 842.178 94.1769 841.894C93.9455 841.795 93.714 841.692 93.4851 841.587C89.8009 839.913 86.454 837.792 83.5605 835.297C83.4759 835.23 83.3963 835.16 83.3117 835.095C82.9085 834.74 82.5128 834.381 82.1296 834.013L81.7065 833.609C81.2536 833.159 80.8156 832.697 80.3901 832.229C80.3278 832.16 80.2681 832.092 80.2034 832.027C78.4727 830.081 77.0357 827.973 75.923 825.749C75.8882 825.683 75.8583 825.61 75.826 825.547C75.4842 824.834 75.1814 824.114 74.9176 823.388C74.8032 823.083 74.6937 822.782 74.5991 822.465C74.5643 822.372 74.5344 822.281 74.507 822.191C73.0935 817.715 72.9268 813.067 72.9268 808.45C72.9268 807.911 72.9268 807.37 72.9268 806.835C72.9268 804.968 72.9541 803.089 72.994 801.212C72.994 800.725 73.0188 800.241 73.0313 799.752C73.0661 798.513 73.1159 797.274 73.1806 796.034C73.1955 795.689 73.2154 795.346 73.2378 795.003C73.2378 794.805 73.2503 794.607 73.2752 794.409C73.3349 793.691 73.3847 792.978 73.4444 792.268Z" fill="#6C63FF"/>
<path opacity="0.1" d="M98.7012 761.178H84.8472C87.0992 758.319 89.5598 755.572 92.2159 752.95C94.274 750.9 96.4465 748.901 98.7012 746.976V761.178Z" fill="#6C63FF"/>
<path opacity="0.1" d="M98.7011 762.042V791.404H73.5239C73.5239 791.319 73.5413 791.232 73.5488 791.147C73.5712 790.915 73.5936 790.683 73.6185 790.453C73.6459 790.183 73.6757 789.91 73.7081 789.646C73.7404 789.381 73.7753 789.058 73.8126 788.766C73.8499 788.473 73.8848 788.176 73.9271 787.883C73.9694 787.591 74.0067 787.298 74.0515 787.007C74.0963 786.717 74.1361 786.422 74.1834 786.131C74.2207 785.889 74.2605 785.649 74.3004 785.407C74.3576 785.066 74.4173 784.722 74.482 784.383C74.482 784.333 74.4995 784.28 74.5094 784.232C74.9636 781.749 75.5825 779.289 76.3634 776.86C77.1808 774.313 78.2246 771.817 79.4866 769.392C80.8279 766.855 82.3983 764.401 84.1851 762.052L98.7011 762.042Z" fill="#6C63FF"/>
<path opacity="0.1" d="M104.731 792.266V820.19H158.676V792.266H104.731ZM104.731 821.052V845.033C105.04 845.085 105.346 845.136 105.649 845.178C106.062 845.242 106.473 845.301 106.894 845.351C106.973 845.362 107.055 845.372 107.142 845.378C107.307 845.4 107.476 845.418 107.64 845.436C108.056 845.483 108.469 845.521 108.884 845.551C109.081 845.567 109.28 845.582 109.479 845.594L109.959 845.624C110.221 845.64 110.48 845.652 110.736 845.658C110.895 845.658 111.054 845.67 111.219 845.674C111.343 845.674 111.468 845.674 111.597 845.674C111.726 845.674 111.911 845.674 112.067 845.674C112.281 845.674 112.495 845.674 112.707 845.674H112.993C113.207 845.674 113.421 845.674 113.633 845.658H113.648C113.794 845.658 113.944 845.658 114.093 845.642C114.134 845.644 114.176 845.644 114.217 845.642C114.342 845.642 114.466 845.642 114.586 845.628H114.673L115.507 845.576C115.78 845.555 116.057 845.529 116.335 845.505L116.903 845.45C119.211 845.188 121.494 844.794 123.734 844.272C128.766 843.133 133.688 841.54 138.718 840.374C145.22 838.87 152.405 838.131 158.689 839.97V821.052H104.731ZM158.676 761.178V724.002C152.77 723.95 146.88 724.511 141.149 725.67C127.489 728.453 115.233 734.491 104.731 742.202V761.176H107.439V762.038H104.731V791.404H158.676V762.04H118.555V761.178H158.676ZM227.966 748.621C224.587 748.524 221.227 747.656 218.189 746.315C212.378 743.752 207.736 739.793 202.55 736.453C191.775 729.495 178.411 725.296 164.701 724.255V761.178H241.711L241.902 761.014L227.966 748.621ZM234.982 747.611L242.42 754.232V745.875C239.929 746.126 237.746 746.721 234.992 747.603L234.982 747.611ZM242.42 850.987V821.052H226.57C226.528 820.925 226.486 820.796 226.436 820.667C226.483 820.796 226.523 820.925 226.568 821.052H164.711V842.701C165.298 843.054 165.878 843.426 166.453 843.803C167.073 844.207 167.685 844.633 168.3 845.051L168.919 845.467C169.215 845.668 169.514 845.87 169.815 846.06C170.413 846.453 171.016 846.841 171.624 847.223C171.926 847.425 172.234 847.606 172.54 847.796C177.4 850.81 182.526 853.529 187.877 855.933C189.077 856.471 190.287 856.997 191.508 857.509C192.322 857.846 193.141 858.181 193.962 858.506C195.196 858.995 196.441 859.466 197.695 859.919C209.259 864.13 221.486 867.019 234.029 868.504C236.814 868.838 239.61 869.1 242.418 869.291V850.985H242.666L242.42 850.987ZM164.711 762.04V791.404H242.43V762.04H164.711ZM164.711 792.266V820.19H242.43V792.266H164.711ZM248.462 745.839V755.161L257.956 746.711C254.811 746.299 251.646 746.005 248.462 745.829V745.839ZM248.462 792.276V820.19H324.054V792.266L248.462 792.276ZM323.777 853.204L324.044 821.052H248.462V869.612C253.331 869.778 258.208 869.731 263.07 869.471H263.155C265.478 869.353 267.79 869.18 270.091 868.954H270.143C282.419 867.796 294.423 865.197 305.78 861.242L323.777 853.204ZM338.629 796.864C338.346 796.321 338.049 795.782 337.748 795.249C337.186 794.24 336.591 793.259 335.979 792.278H330.081V820.19H344.993C344.985 812.286 342.519 804.211 338.637 796.854L338.629 796.864ZM330.081 821.062V848.716C334.282 845.45 337.83 841.714 340.386 837.443C343.46 832.3 344.866 826.73 344.98 821.058L330.081 821.062ZM330.081 784.139V791.406H335.426C333.809 788.904 332.027 786.475 330.088 784.129L330.081 784.139ZM278.816 751.317C278.423 751.196 278.029 751.073 277.634 750.954C273.461 749.704 269.196 748.664 264.865 747.841L250.336 760.774L250.058 761.014L250.244 761.18H301.952C294.751 757.159 286.987 753.845 278.823 751.307L278.816 751.317ZM303.468 762.05H249.523L248.462 762.837V791.404H257.755H257.77H324.064V777.567C318.067 771.684 311.145 766.464 303.475 762.04L303.468 762.05Z" fill="#6C63FF"/>
<path opacity="0.1" d="M98.7011 776.852V791.403H73.5239C73.5239 791.319 73.5413 791.232 73.5488 791.147C73.5712 790.915 73.5936 790.683 73.6185 790.453C73.6459 790.182 73.6757 789.91 73.7081 789.645C73.7404 789.381 73.7753 789.058 73.8126 788.765C73.8499 788.472 73.8848 788.176 73.9271 787.883C73.9694 787.59 74.0067 787.298 74.0515 787.007C74.0963 786.716 74.1361 786.422 74.1834 786.131C74.2207 785.889 74.2605 785.648 74.3004 785.406C74.3576 785.065 74.4173 784.722 74.482 784.383C74.482 784.332 74.4995 784.28 74.5094 784.231C74.9636 781.749 75.5825 779.288 76.3634 776.86L98.7011 776.852Z" fill="#6C63FF"/>
<path opacity="0.1" d="M73.4444 792.268H98.7012V820.19H75.2934C75.2312 820.477 75.1715 820.765 75.1068 821.054H98.7012V843.573C98.6589 843.563 98.6215 843.551 98.5817 843.539C97.9148 843.325 97.2528 843.099 96.5908 842.856L96.1678 842.701C95.5041 842.447 94.8405 842.178 94.1769 841.894C93.9455 841.795 93.714 841.692 93.4851 841.587C89.8009 839.913 86.454 837.792 83.5605 835.297C83.4759 835.23 83.3963 835.16 83.3117 835.095C82.9085 834.74 82.5128 834.381 82.1296 834.013L81.7065 833.609C81.2536 833.159 80.8156 832.697 80.3901 832.229C80.3278 832.16 80.2681 832.092 80.2034 832.027C78.4727 830.081 77.0357 827.973 75.923 825.749C75.8882 825.683 75.8583 825.61 75.826 825.547C75.4842 824.834 75.1814 824.114 74.9176 823.388C74.8032 823.083 74.6937 822.782 74.5991 822.465C74.5643 822.372 74.5344 822.281 74.507 822.191C73.0935 817.715 72.9268 813.067 72.9268 808.45C72.9268 807.911 72.9268 807.37 72.9268 806.835C72.9268 804.968 72.9541 803.089 72.994 801.212C72.994 800.725 73.0188 800.241 73.0313 799.752C73.0661 798.513 73.1159 797.274 73.1806 796.034C73.1955 795.689 73.2154 795.346 73.2378 795.003C73.2378 794.805 73.2503 794.607 73.2752 794.409C73.3349 793.691 73.3847 792.978 73.4444 792.268Z" fill="#6C63FF"/>
<path opacity="0.1" d="M123.721 766.244V791.403H104.731V766.244H107.439V757.726H118.553V766.244H123.721Z" fill="#6C63FF"/>
<path opacity="0.1" d="M123.721 792.266H104.733V820.188H123.721V792.266Z" fill="#6C63FF"/>
<path opacity="0.1" d="M104.731 821.054H123.721V844.267C121.481 844.789 119.199 845.182 116.89 845.444L116.323 845.5C116.044 845.527 115.768 845.549 115.494 845.571C115.22 845.593 114.937 845.609 114.66 845.623H114.573C114.454 845.623 114.325 845.636 114.208 845.638H114.081C113.931 845.638 113.782 845.65 113.633 845.654C113.421 845.664 113.21 845.666 112.993 845.668C112.901 845.668 112.814 845.668 112.722 845.668C112.508 845.668 112.296 845.668 112.082 845.668H111.612C111.485 845.668 111.363 845.668 111.231 845.668L110.751 845.654C110.502 845.654 110.233 845.632 109.974 845.617L109.497 845.589L108.902 845.545C108.484 845.515 108.068 845.476 107.658 845.43L107.16 845.373L106.911 845.345C106.495 845.292 106.085 845.236 105.667 845.171C105.361 845.129 105.057 845.076 104.748 845.026L104.731 821.054Z" fill="#6C63FF"/>
<path opacity="0.1" d="M242.43 763.272H226.771V791.401H242.43V763.272Z" fill="#6C63FF"/>
<path opacity="0.1" d="M242.432 792.266V820.19H164.711V808.146H206.109V815.251H226.772V792.266H242.432Z" fill="#6C63FF"/>
<path opacity="0.1" d="M242.679 850.993H242.43V869.311C239.626 869.119 236.83 868.857 234.043 868.526C221.495 867.036 209.262 864.14 197.695 859.923C194.355 858.704 191.083 857.373 187.88 855.93C182.528 853.525 177.401 850.806 172.54 847.793C171.319 847.034 170.114 846.258 168.924 845.464C168.1 844.913 167.282 844.348 166.453 843.799C165.878 843.421 165.298 843.05 164.711 842.694V821.054H226.565C226.523 820.924 226.48 820.795 226.436 820.668C226.483 820.795 226.528 820.924 226.57 821.054H242.43V850.981C242.514 850.983 242.597 850.989 242.679 850.993Z" fill="#6C63FF"/>
<path opacity="0.1" d="M283.268 761.177H273.064V758.606H277.638V750.945C278.035 751.062 278.43 751.183 278.823 751.307V758.606H283.268V761.177Z" fill="#6C63FF"/>
<path opacity="0.1" d="M307.85 791.404H257.76C257.76 791.404 257.76 791.404 257.777 791.414L257.755 791.404H248.462V763.275H251.095V784.066H263.128V771.753H273.067V762.042H283.27V771.761H293.21V784.074H307.85V791.404Z" fill="#6C63FF"/>
<path opacity="0.1" d="M248.462 792.266V820.19H307.85V792.266H248.462ZM323.971 853.06L324.054 830.957H307.85V821.066H248.462V869.612C253.331 869.778 258.208 869.731 263.07 869.471H263.155C265.478 869.353 267.79 869.18 270.091 868.954H270.143C282.419 867.795 294.424 865.197 305.78 861.242" fill="#6C63FF"/>
<path opacity="0.1" d="M331.136 821.054H344.99C344.868 826.724 343.465 832.293 340.394 837.436C337.838 841.71 334.287 845.446 330.091 848.71V830.947H331.136V821.054Z" fill="#6C63FF"/>
<path opacity="0.1" d="M344.998 820.19H331.136V796.854H338.637C342.519 804.211 344.985 812.285 344.998 820.19Z" fill="#6C63FF"/>
<path opacity="0.1" d="M242.433 771.093H234.043V779.912H242.433V771.093Z" fill="#6C63FF"/>
<path opacity="0.1" d="M242.433 789.373H234.043V791.404H242.433V789.373Z" fill="#6C63FF"/>
<path opacity="0.1" d="M242.433 792.266H234.043V798.19H242.433V792.266Z" fill="#6C63FF"/>
<path opacity="0.1" d="M242.433 807.652H234.043V816.471H242.433V807.652Z" fill="#6C63FF"/>
<path opacity="0.1" d="M242.433 825.933H234.043V834.752H242.433V825.933Z" fill="#6C63FF"/>
<path opacity="0.1" d="M242.43 850.981C242.515 850.981 242.597 850.981 242.679 850.993H242.43V853.042H234.043V844.213H242.43V850.981Z" fill="#6C63FF"/>
<path opacity="0.1" d="M242.43 862.488V869.301C239.626 869.108 236.831 868.847 234.043 868.516V862.488H242.43Z" fill="#6C63FF"/>
<path opacity="0.1" d="M200.664 819.542H164.711V820.19H200.664V819.542Z" fill="#6C63FF"/>
<path opacity="0.1" d="M200.664 821.052H164.711V823.535H200.664V821.052Z" fill="#6C63FF"/>
<path opacity="0.1" d="M200.664 831.674H164.711V835.667H200.664V831.674Z" fill="#6C63FF"/>
<path opacity="0.1" d="M200.661 843.805V847.797H172.54C171.319 847.041 170.113 846.265 168.922 845.468C168.098 844.917 167.282 844.352 166.451 843.805H200.661Z" fill="#6C63FF"/>
<path opacity="0.1" d="M200.661 855.935V859.923H197.692C194.356 858.703 191.085 857.371 187.88 855.929L200.661 855.935Z" fill="#6C63FF"/>
<path opacity="0.1" d="M270.15 794.973H263.073V800.713H270.15V794.973Z" fill="#6C63FF"/>
<path opacity="0.1" d="M116.908 768.225H109.83V773.965H116.908V768.225Z" fill="#6C63FF"/>
<path opacity="0.1" d="M116.908 781.559H109.83V787.299H116.908V781.559Z" fill="#6C63FF"/>
<path opacity="0.1" d="M116.908 794.894H109.83V800.634H116.908V794.894Z" fill="#6C63FF"/>
<path opacity="0.1" d="M116.908 808.227H109.83V813.967H116.908V808.227Z" fill="#6C63FF"/>
<path opacity="0.1" d="M116.908 821.561H109.83V827.301H116.908V821.561Z" fill="#6C63FF"/>
<path opacity="0.1" d="M116.908 834.896H109.83V840.636H116.908V834.896Z" fill="#6C63FF"/>
<path opacity="0.1" d="M297.169 794.973H290.092V800.713H297.169V794.973Z" fill="#6C63FF"/>
<path opacity="0.1" d="M270.15 809.133H263.073V814.874H270.15V809.133Z" fill="#6C63FF"/>
<path opacity="0.1" d="M297.169 809.133H290.092V814.874H297.169V809.133Z" fill="#6C63FF"/>
<path opacity="0.1" d="M270.15 823.29H263.073V829.031H270.15V823.29Z" fill="#6C63FF"/>
<path opacity="0.1" d="M297.169 823.29H290.092V829.031H297.169V823.29Z" fill="#6C63FF"/>
<path opacity="0.1" d="M270.15 837.45H263.073V843.191H270.15V837.45Z" fill="#6C63FF"/>
<path opacity="0.1" d="M297.169 837.45H290.092V843.191H297.169V837.45Z" fill="#6C63FF"/>
<path opacity="0.1" d="M270.15 851.61H263.073V857.351H270.15V851.61Z" fill="#6C63FF"/>
<path opacity="0.1" d="M297.169 851.61H290.092V857.351H297.169V851.61Z" fill="#6C63FF"/>
<path opacity="0.1" d="M263.073 869.471V865.769H270.148V868.944L263.073 869.471Z" fill="#6C63FF"/>
<path opacity="0.1" d="M74.4795 784.228V787.512H98.701V784.228H74.4795ZM76.8934 787.306H74.9175V784.429H76.9084L76.8934 787.306ZM79.3049 787.306H77.314V784.429H79.3049V787.306ZM81.7114 787.306H79.7205V784.429H81.7114V787.306ZM84.1228 787.306H82.1344V784.429H84.1253L84.1228 787.306ZM86.5318 787.306H84.5409V784.429H86.5318V787.306ZM88.9432 787.306H86.9523V784.429H88.9432V787.306ZM91.3547 787.306H89.3638V784.429H91.3547V787.306ZM93.7636 787.306H91.7728V784.429H93.7636V787.306ZM96.1726 787.306H94.1817V784.429H96.1726V787.306ZM98.5816 787.306H96.5907V784.429H98.5816V787.306Z" fill="#6C63FF"/>
<path opacity="0.1" d="M74.4795 793.783V797.067H98.701V793.783H74.4795ZM76.8934 796.859H74.9175V793.991H76.9084L76.8934 796.859ZM79.3049 796.859H77.314V793.991H79.3049V796.859ZM81.7114 796.859H79.7205V793.991H81.7114V796.859ZM84.1228 796.859H82.1344V793.991H84.1253L84.1228 796.859ZM86.5318 796.859H84.5409V793.991H86.5318V796.859ZM88.9432 796.859H86.9523V793.991H88.9432V796.859ZM91.3547 796.859H89.3638V793.991H91.3547V796.859ZM93.7636 796.859H91.7728V793.991H93.7636V796.859ZM96.1726 796.859H94.1817V793.991H96.1726V796.859ZM98.5816 796.859H96.5907V793.991H98.5816V796.859Z" fill="#6C63FF"/>
<path opacity="0.1" d="M74.4795 803.343V806.633H98.701V803.343H74.4795ZM76.8934 806.419H74.9175V803.549H76.9084L76.8934 806.419ZM79.3049 806.419H77.314V803.549H79.3049V806.419ZM81.7114 806.419H79.7205V803.549H81.7114V806.419ZM84.1228 806.419H82.1344V803.549H84.1253L84.1228 806.419ZM86.5318 806.419H84.5409V803.549H86.5318V806.419ZM88.9432 806.419H86.9523V803.549H88.9432V806.419ZM91.3547 806.419H89.3638V803.549H91.3547V806.419ZM93.7636 806.419H91.7728V803.549H93.7636V806.419ZM96.1726 806.419H94.1817V803.549H96.1726V806.419ZM98.5816 806.419H96.5907V803.549H98.5816V806.419Z" fill="#6C63FF"/>
<path opacity="0.1" d="M74.4795 812.903V816.183H98.701V812.903H74.4795ZM76.8934 815.98H74.9175V813.107H76.9084L76.8934 815.98ZM79.3049 815.98H77.314V813.107H79.3049V815.98ZM81.7114 815.98H79.7205V813.107H81.7114V815.98ZM84.1228 815.98H82.1344V813.107H84.1253L84.1228 815.98ZM86.5318 815.98H84.5409V813.107H86.5318V815.98ZM88.9432 815.98H86.9523V813.107H88.9432V815.98ZM91.3547 815.98H89.3638V813.107H91.3547V815.98ZM93.7636 815.98H91.7728V813.107H93.7636V815.98ZM96.1726 815.98H94.1817V813.107H96.1726V815.98ZM98.5816 815.98H96.5907V813.107H98.5816V815.98Z" fill="#6C63FF"/>
<path opacity="0.1" d="M74.584 822.461C74.681 822.77 74.7905 823.079 74.905 823.383V822.667H76.8959V825.537H75.8308C75.8631 825.604 75.8955 825.677 75.9278 825.739H98.701V822.461H74.584ZM79.3123 825.537H77.3214V822.667H79.3123V825.537ZM81.7188 825.537H79.7279V822.667H81.7188V825.537ZM84.1302 825.537H82.1344V822.667H84.1253L84.1302 825.537ZM86.5392 825.537H84.5483V822.667H86.5392V825.537ZM88.9507 825.537H86.9598V822.667H88.9507V825.537ZM91.3621 825.537H89.3712V822.667H91.3621V825.537ZM93.7711 825.537H91.7802V822.667H93.7711V825.537ZM96.18 825.537H94.1892V822.667H96.18V825.537ZM98.589 825.537H96.5981V822.667H98.589V825.537Z" fill="#6C63FF"/>
<path opacity="0.1" d="M80.208 832.021C80.2702 832.085 80.3299 832.158 80.3947 832.222H81.7111V833.601C81.853 833.738 81.9923 833.876 82.1367 834.005V832.214H84.1275V835.095H83.3212C83.4009 835.161 83.478 835.232 83.5701 835.297H98.7082V832.021H80.208ZM86.5315 835.095H84.5407V832.226H86.5315V835.095ZM88.943 835.095H86.9521V832.226H88.943V835.095ZM91.3544 835.095H89.3636V832.226H91.3544V835.095ZM93.7634 835.095H91.7725V832.226H93.7634V835.095ZM96.1724 835.095H94.1815V832.226H96.1724V835.095ZM98.5813 835.095H96.5904V832.226H98.5813V835.095Z" fill="#6C63FF"/>
<path opacity="0.1" d="M93.4946 841.578C93.7211 841.683 93.9525 841.78 94.1865 841.885V841.784H96.1773V842.692L96.6004 842.852V841.784H98.5913V843.53C98.6295 843.545 98.6695 843.558 98.7107 843.566V841.578H93.4946Z" fill="#6C63FF"/>
<path opacity="0.1" d="M257.76 791.404H257.774H257.76ZM242.43 850.979H242.679H242.43ZM226.436 820.667C226.483 820.796 226.523 820.925 226.567 821.052C226.528 820.925 226.485 820.796 226.436 820.667ZM257.76 791.398H257.774H257.76ZM107.448 761.172V762.034H118.565V761.172H107.448ZM242.43 850.979H242.679H242.43ZM226.436 820.667C226.483 820.796 226.523 820.925 226.567 821.052C226.528 820.925 226.485 820.796 226.436 820.667ZM257.76 791.398H257.774H257.76ZM242.43 850.973H242.679H242.43ZM226.436 820.667C226.483 820.796 226.523 820.925 226.567 821.052C226.528 820.925 226.485 820.796 226.436 820.667Z" fill="#6C63FF"/>
<path d="M184.874 800.639C184.874 800.639 183.893 800.528 183.893 799.369C183.893 798.21 183.192 796.047 183.192 796.047C183.192 796.036 182.584 792.278 181.746 791.68C180.907 791.083 179.83 787.575 179.83 787.575C179.83 787.575 179.645 785.671 179.27 785.261C178.894 784.852 178.386 783.848 177.637 782.417C176.888 780.986 173.765 779.995 173.765 779.995C173.765 779.995 168.118 777.339 166.518 776.473C166.373 776.402 166.237 776.318 166.112 776.224C165.834 775.928 164.619 775.922 164.619 775.922C164.492 775.272 164.37 774.525 164.331 773.849C164.331 773.776 164.331 773.703 164.318 773.631C166.102 772.775 167.446 771.426 168.103 769.832C168.133 769.755 168.158 769.674 168.185 769.597C168.292 769.569 168.391 769.523 168.474 769.461C168.558 769.4 168.625 769.326 168.671 769.242C168.815 768.982 168.817 768.677 168.997 768.435C169.206 768.148 169.604 767.995 169.917 767.779C170.709 767.234 170.913 766.315 170.876 765.48C170.851 764.803 170.716 764.121 170.769 763.449L170.783 763.279C170.798 763.178 170.816 763.078 170.838 762.981C170.96 762.48 171.226 762.008 171.376 761.511C171.525 761.015 171.54 760.455 171.192 760.028C170.681 759.4 169.619 759.275 168.686 759.21C167.628 759.137 166.682 759.232 166.005 758.52C165.689 758.147 165.332 757.798 164.94 757.476C164.801 757.371 163.447 756.701 163.447 756.657C162.126 756.16 160.628 756.067 159.229 756.394C158.527 756.56 157.865 756.83 157.153 756.965C155.618 757.26 153.851 756.941 152.547 757.654C151.82 758.057 151.385 758.699 150.977 759.325C150.645 759.84 150.308 760.355 149.966 760.869C149.416 761.715 148.856 762.575 148.625 763.512C148.576 763.715 148.546 763.922 148.535 764.129V764.139C148.535 764.214 148.535 764.289 148.535 764.363V764.458C148.535 764.529 148.535 764.598 148.55 764.66C148.565 764.723 148.563 764.743 148.57 764.785C148.578 764.828 148.59 764.923 148.605 764.987C148.62 765.052 148.65 765.165 148.68 765.254C148.692 765.292 148.71 765.328 148.725 765.365C148.749 765.433 148.779 765.5 148.812 765.566C148.829 765.601 148.846 765.637 148.866 765.671C148.904 765.742 148.948 765.811 148.993 765.873C149.013 765.902 149.028 765.928 149.048 765.954C149.117 766.048 149.194 766.138 149.277 766.224C149.81 766.763 150.593 767.107 151.173 767.611C151.173 767.631 151.173 767.652 151.173 767.67C151.173 767.726 151.173 767.781 151.173 767.837C151.204 768.963 151.573 770.065 152.249 771.048C152.925 772.032 153.887 772.866 155.051 773.479C155.051 773.556 155.063 773.635 155.068 773.711C155.116 774.31 155.107 774.912 155.041 775.51C154.939 775.413 154.812 775.336 154.669 775.284C154.526 775.232 154.371 775.207 154.214 775.211C154.107 775.207 154 775.214 153.896 775.233L153.873 775.219V775.237C153.326 775.346 152.652 775.809 152.007 777.123C152.007 777.123 150.046 778.915 148.553 778.84C147.06 778.766 143.279 780.706 143.279 780.706C143.279 780.706 139.591 782.647 138.8 784.626C138.358 785.747 137.827 786.845 137.212 787.912L132.653 795.532L131.812 801.577C131.812 801.577 132.277 804.266 132.185 804.676C132.093 805.086 134.099 808.782 134.099 808.782C134.099 808.782 140.726 818.226 143.434 818.711L143.628 818.6C143.744 818.649 143.867 818.686 143.994 818.711L144.551 818.392C144.585 818.747 144.57 819.105 144.509 819.458C144.136 820.39 144.648 826.476 145.3 827.669C145.952 828.862 145.721 844.504 145.721 844.504L145.629 845.885C145.629 845.885 145.629 845.929 145.651 846.006L145.629 846.333L145.696 846.361C145.766 846.799 145.743 847.243 145.629 847.675C145.395 848.281 145.3 849.992 145.3 849.992C145.3 849.992 143.436 859.657 144.32 861.599C145.203 863.541 145.955 865.668 145.955 865.668C145.955 865.668 146.888 868.091 146 868.504C145.111 868.918 142.585 869.613 143.105 870.622C143.578 871.554 145.372 874.053 145.639 874.419L145.616 874.611L145.25 877.826C145.31 878.251 145.452 878.665 145.671 879.053C146.072 879.754 146.851 880.48 148.331 880.402C148.58 880.388 148.869 880.363 149.148 880.333C151.858 880.038 155.195 879.057 155.195 879.057C155.022 878.968 154.863 878.862 154.722 878.74C154.589 878.636 154.483 878.51 154.412 878.371C154.34 878.233 154.305 878.083 154.306 877.933C154.346 877.348 152.995 874.558 152.659 873.872C152.607 873.773 152.579 873.716 152.579 873.716C152.579 873.716 155.66 871.104 155.148 868.789C155.148 868.789 151.738 867.174 152.861 866.288C153.983 865.402 155.989 862.857 155.989 862.857C155.989 862.857 156.081 853.339 155.989 851.918C155.893 850.932 155.95 849.939 156.16 848.965C156.198 848.817 156.243 848.674 156.29 848.533C157.842 848.721 159.409 848.817 160.978 848.822C161.551 848.822 162.133 848.822 162.72 848.793C162.72 848.928 162.728 849.073 162.743 849.229C162.872 851.587 163.114 855.721 163.31 857.257C163.589 859.459 165.129 865.394 165.129 865.394C165.129 865.394 162.19 866.924 165.642 870.695C165.642 870.695 165.642 872.061 165.413 872.259C165.169 872.906 164.972 873.563 164.823 874.229C164.679 874.94 164.619 875.658 164.853 876.032C165.413 876.924 168.773 876.851 168.773 876.851L168.855 876.839C169.489 876.786 170.13 876.835 170.74 876.985C171.351 877.134 171.919 877.38 172.411 877.709C173.688 878.541 178.533 878.175 181.156 877.911C182.184 877.806 182.871 877.709 182.871 877.709C182.904 877.615 182.916 877.516 182.905 877.418C182.878 876.896 182.373 875.749 178.949 874.726C178.949 874.726 175.728 872.969 175.773 871.439H175.706H175.333C175.604 871.427 175.778 871.439 175.778 871.439C175.778 871.439 174.516 867.705 175.031 867.402C175.547 867.1 174.004 862.961 174.004 862.961C174.004 862.961 173.12 856.018 173.073 855.531C173.075 855.114 173.153 854.699 173.304 854.3L173.073 850.493C173.073 850.493 173.028 849.227 173.073 848.815C173.065 848.458 173.03 848.101 172.966 847.748C172.944 847.606 172.921 847.459 172.896 847.314C174.103 847.065 174.887 846.835 174.887 846.835L174.748 833.583C175.773 831.969 175.962 828.426 175.957 825.913C175.957 824.298 175.868 823.103 175.868 823.103L177.269 821.248C177.269 821.248 177.592 819.028 177.08 818.541C176.853 818.321 176.955 818.093 177.142 817.905C177.239 817.843 177.341 817.786 177.448 817.736C177.448 817.736 177.433 817.718 177.416 817.691C177.513 817.625 177.617 817.565 177.727 817.512C177.727 817.512 177.229 816.886 177.674 816.622C178.092 816.852 178.466 817.025 178.749 817.167C178.73 817.314 178.71 817.399 178.71 817.399L178.829 817.197C179.103 817.322 179.27 817.399 179.27 817.399C179.27 817.399 181.465 813.852 181.417 813.329C181.37 812.807 182.91 810.604 182.91 810.604C182.91 810.604 183.097 809.448 183.938 808.963C184.779 808.479 184.59 804.969 184.59 804.969C184.59 804.969 184.824 803.14 185.384 802.393C185.944 801.646 184.874 800.639 184.874 800.639ZM142.876 799.082L142.919 799.928C142.67 799.603 142.491 799.369 142.491 799.369L142.876 799.082Z" fill="url(#paint1_linear_176_547)"/>
<path d="M179.389 815.867L178.851 817.724C178.851 817.724 174.546 815.941 173.77 813.676C172.993 811.412 175.069 810.552 175.069 810.552L179.08 811.93L179.389 815.867Z" fill="white"/>
<path opacity="0.1" d="M179.389 815.867L178.851 817.724C178.851 817.724 174.546 815.941 173.77 813.676C172.993 811.412 175.069 810.552 175.069 810.552L179.08 811.93L179.389 815.867Z" fill="black"/>
<path d="M155.227 879.069C155.227 879.069 151.245 880.256 148.508 880.406C147.055 880.484 146.291 879.762 145.897 879.065C145.683 878.678 145.544 878.266 145.487 877.844L145.843 874.645L146.032 872.941L151.848 871.716L152.671 873.759L152.749 873.914C153.08 874.596 154.406 877.372 154.366 877.951C154.365 878.099 154.4 878.247 154.47 878.384C154.54 878.521 154.644 878.645 154.774 878.748C154.908 878.871 155.06 878.978 155.227 879.069Z" fill="white"/>
<path d="M182.425 877.442C182.435 877.54 182.423 877.637 182.39 877.731C182.39 877.731 173.874 878.884 172.132 877.731C171.641 877.394 171.069 877.145 170.451 876.998C169.834 876.851 169.186 876.811 168.549 876.879C168.549 876.879 165.254 876.952 164.704 876.072C164.475 875.703 164.535 874.986 164.676 874.279C164.821 873.617 165.014 872.963 165.254 872.319L165.386 872.235L166.17 871.724L175.348 871.504H175.417C175.372 873.026 178.533 874.772 178.533 874.772C181.89 875.781 182.385 876.922 182.425 877.442Z" fill="white"/>
<path opacity="0.1" d="M182.425 877.442C182.433 877.54 182.421 877.637 182.387 877.731C182.387 877.731 173.874 878.884 172.132 877.731C171.641 877.395 171.069 877.145 170.452 876.998C169.836 876.852 169.188 876.811 168.551 876.879C168.551 876.879 165.253 876.952 164.706 876.072C164.477 875.7 164.534 874.986 164.676 874.279C165.945 874.382 167.949 874.639 168.735 875.25C169.925 876.181 171.94 877.109 173.177 877.182C174.145 877.232 179.936 877.382 182.425 877.442Z" fill="black"/>
<path opacity="0.1" d="M155.227 879.069C155.227 879.069 151.245 880.256 148.508 880.405C147.055 880.484 146.291 879.761 145.9 879.063C146.913 879.339 148.319 879.63 149.058 879.363C149.934 879.048 153.04 878.845 154.782 878.758C154.914 878.876 155.064 878.98 155.227 879.069Z" fill="black"/>
<path d="M161.135 783.42C157.85 782.384 153.624 778.963 154.68 777.364C154.914 776.961 155.053 776.525 155.09 776.08C155.158 775.476 155.168 774.869 155.12 774.264C155.046 773.272 154.899 772.286 154.68 771.309C154.68 771.309 164.935 771.496 164.338 772.722C164.164 773.081 164.136 773.705 164.184 774.403C164.231 775.101 164.355 775.891 164.485 776.559C164.664 777.475 164.843 778.174 164.843 778.174C164.843 778.174 164.216 778.886 163.848 778.925C163.479 778.963 165.848 784.895 161.135 783.42Z" fill="#CF6F80"/>
<path opacity="0.1" d="M152.741 873.914L152.664 873.983C149.598 870.975 145.89 874.723 145.89 874.723L145.835 874.645L146.024 872.941L151.84 871.716L152.664 873.759L152.741 873.914Z" fill="black"/>
<path opacity="0.1" d="M175.42 871.715C175.42 871.715 173.18 871.677 171.985 872.533C170.791 873.388 165.017 872.718 165.266 872.533C165.34 872.441 165.384 872.335 165.396 872.226L166.179 871.715L175.357 871.495C175.392 871.63 175.42 871.715 175.42 871.715Z" fill="black"/>
<path d="M156.556 848.096C156.389 848.431 156.263 848.777 156.178 849.132C155.97 850.102 155.913 851.089 156.006 852.071C156.098 853.484 156.006 862.953 156.006 862.953C156.006 862.953 154.038 865.478 152.94 866.368C151.843 867.258 155.18 868.857 155.18 868.857C155.678 871.158 152.661 873.758 152.661 873.758C149.596 870.75 145.888 874.501 145.888 874.501C145.888 874.501 143.872 871.675 143.369 870.665C142.866 869.656 145.338 868.958 146.206 868.548C147.075 868.138 146.164 865.722 146.164 865.722C146.164 865.722 145.43 863.605 144.559 861.673C143.688 859.741 145.519 850.125 145.519 850.125C145.519 850.125 145.614 848.417 145.84 847.821C145.954 847.392 145.977 846.949 145.907 846.513C145.892 846.366 145.875 846.243 145.863 846.16C145.85 846.077 145.84 846.039 145.84 846.039L145.875 845.991L147.119 844.109C147.119 844.109 157.153 846.911 156.556 848.096Z" fill="#6C63FF"/>
<path d="M175.419 871.493C175.419 871.493 173.18 871.455 171.985 872.301C170.791 873.147 165.017 872.487 165.266 872.301C165.515 872.115 165.495 870.741 165.495 870.741C162.108 866.99 164.997 865.468 164.997 865.468C164.997 865.468 163.484 859.564 163.21 857.374C163.019 855.844 162.782 851.732 162.655 849.384C162.601 848.375 162.568 847.681 162.568 847.681L165.336 847.228L165.692 847.17L172.366 846.084C172.366 846.084 172.55 847.093 172.675 847.919C172.737 848.271 172.771 848.627 172.779 848.983C172.734 849.386 172.779 850.65 172.779 850.65L173.006 854.439C172.858 854.836 172.781 855.249 172.779 855.664C172.824 856.146 173.692 863.054 173.692 863.054C173.692 863.054 175.203 867.176 174.688 867.473C174.173 867.769 175.419 871.493 175.419 871.493Z" fill="#6C63FF"/>
<path opacity="0.1" d="M164.338 772.722C164.164 773.081 164.136 773.705 164.184 774.403C162.81 775.074 161.231 775.417 159.628 775.393C158.024 775.368 156.462 774.978 155.12 774.266C155.046 773.274 154.899 772.286 154.68 771.309C154.68 771.309 164.935 771.492 164.338 772.722Z" fill="black"/>
<path d="M168.302 768.261C168.304 768.988 168.163 769.711 167.884 770.403C167.261 771.952 165.982 773.272 164.275 774.13C162.567 774.988 160.54 775.33 158.553 775.093C156.565 774.857 154.745 774.058 153.413 772.838C152.081 771.618 151.324 770.055 151.275 768.426C151.275 768.37 151.275 768.317 151.275 768.261C151.256 767.344 151.462 766.433 151.881 765.581C152.3 764.73 152.924 763.954 153.717 763.3C154.51 762.646 155.455 762.127 156.497 761.773C157.54 761.418 158.659 761.235 159.79 761.235C160.92 761.235 162.04 761.418 163.082 761.773C164.125 762.127 165.07 762.646 165.863 763.3C166.655 763.954 167.28 764.73 167.699 765.581C168.118 766.433 168.324 767.344 168.305 768.261H168.302Z" fill="#CF6F80"/>
<path opacity="0.1" d="M161.135 783.421C157.85 782.385 153.624 778.964 154.68 777.365C154.914 776.961 155.053 776.526 155.09 776.081L159.587 779.079L162.369 780.93L164.485 776.561C164.664 777.478 164.843 778.176 164.843 778.176C164.843 778.176 164.216 778.889 163.848 778.927C163.479 778.966 165.848 784.896 161.135 783.421Z" fill="black"/>
<path d="M172.764 796.668L169.009 847.838L164.111 848.099L151.429 818.428L153.51 783.202L153.948 775.76L159.587 779.516L162.372 781.367L164.549 776.872L168.598 779.734L172.764 796.668Z" fill="#6C63FF"/>
<path opacity="0.1" d="M156.556 848.096C156.389 848.431 156.262 848.778 156.177 849.132C152.614 848.686 149.153 847.809 145.909 846.53L145.842 846.502L145.865 846.177L145.877 846.007L147.121 844.126C147.121 844.126 157.153 846.912 156.556 848.096Z" fill="black"/>
<path opacity="0.1" d="M165.393 849.14C164.482 849.265 163.563 849.35 162.64 849.394C162.586 848.385 162.553 847.69 162.553 847.69L165.321 847.238L165.393 849.14Z" fill="black"/>
<path opacity="0.1" d="M172.66 847.929C170.89 848.302 168.158 848.722 165.712 848.46L165.677 847.18L172.351 846.094C172.351 846.094 172.535 847.093 172.66 847.929Z" fill="black"/>
<path opacity="0.1" d="M165.667 848.694C155.463 850.107 146.119 846.055 146.119 846.055L146.208 844.683C146.208 844.683 146.44 829.122 145.798 827.929C145.156 826.736 144.655 820.686 145.019 819.758C145.382 818.829 143.692 804.905 143.692 804.905L143.419 799.253L133.399 795.961L137.879 788.387C138.484 787.326 139.004 786.233 139.437 785.117C140.216 783.151 143.832 781.22 143.832 781.22C143.832 781.22 147.54 779.29 149.005 779.362C150.471 779.435 152.392 777.655 152.392 777.655C153.811 774.722 155.095 776.05 155.095 776.05C155.095 776.189 155.095 776.05 155.025 776.484C154.528 779.704 163.073 789.877 163.195 790.057L164.009 806.136L164.833 826.485L165.667 848.694Z" fill="black"/>
<path d="M165.393 848.694C155.19 850.107 145.842 846.056 145.842 846.056L145.934 844.683C145.934 844.683 146.166 829.122 145.521 827.929C144.877 826.736 144.379 820.687 144.745 819.758C145.111 818.83 143.418 804.906 143.418 804.906L143.142 799.254L133.118 795.949L137.598 788.376C138.201 787.313 138.722 786.221 139.156 785.106C139.932 783.14 143.55 781.208 143.55 781.208C143.55 781.208 147.258 779.278 148.722 779.351C150.185 779.423 152.109 777.643 152.109 777.643C153.53 774.71 155.095 776.038 155.095 776.038C155.095 776.178 154.946 776.24 155.025 776.472C156.12 779.595 162.8 789.865 162.922 790.045L163.745 806.125L164.569 826.474L165.393 848.694Z" fill="white"/>
<path opacity="0.1" d="M162.643 790.503C161.546 790.132 155.732 784.749 155.732 784.749V783.523C155.521 783.12 154.264 783.366 153.244 783.648L153.682 776.206L154.179 776.541C155.269 779.662 162.516 790.324 162.643 790.503Z" fill="black"/>
<path d="M162.919 790.057C161.82 789.686 156.006 784.302 156.006 784.302V783.077C155.795 782.673 154.538 782.92 153.518 783.202L153.958 775.76L154.456 776.095C155.548 779.216 162.798 789.88 162.919 790.057Z" fill="white"/>
<path opacity="0.1" d="M146.119 816.906C146.255 816.906 153.214 816.312 153.214 816.312C153.214 816.312 157.427 823.032 157.15 824.667C156.874 826.302 156.374 827.75 154.679 827.493C152.985 827.237 145.559 827.695 145.559 827.695L146.119 816.906Z" fill="black"/>
<path d="M145.843 816.46C145.98 816.46 152.938 815.866 152.938 815.866C152.938 815.866 157.148 822.588 156.875 824.221C156.601 825.854 156.096 827.303 154.403 827.047C152.711 826.791 145.283 827.249 145.283 827.249L145.843 816.46Z" fill="white"/>
<path d="M151.086 813.305C151.086 813.305 157.472 816.088 157.608 816.938C157.745 817.788 154.358 816.567 153.627 816.419C153.145 816.325 152.655 816.263 152.161 816.234L147.281 816.341L151.086 813.305Z" fill="#CF6F80"/>
<path opacity="0.1" d="M160.861 790.851C161.232 790.851 161.533 790.607 161.533 790.306C161.533 790.005 161.232 789.761 160.861 789.761C160.49 789.761 160.189 790.005 160.189 790.306C160.189 790.607 160.49 790.851 160.861 790.851Z" fill="black"/>
<path d="M160.861 790.628C161.232 790.628 161.533 790.384 161.533 790.083C161.533 789.782 161.232 789.538 160.861 789.538C160.49 789.538 160.189 789.782 160.189 790.083C160.189 790.384 160.49 790.628 160.861 790.628Z" fill="#3F3D56"/>
<path opacity="0.1" d="M162.098 814.444C162.469 814.444 162.77 814.2 162.77 813.899C162.77 813.598 162.469 813.354 162.098 813.354C161.727 813.354 161.426 813.598 161.426 813.899C161.426 814.2 161.727 814.444 162.098 814.444Z" fill="black"/>
<path d="M162.098 814.219C162.469 814.219 162.77 813.975 162.77 813.674C162.77 813.373 162.469 813.129 162.098 813.129C161.727 813.129 161.426 813.373 161.426 813.674C161.426 813.975 161.727 814.219 162.098 814.219Z" fill="#3F3D56"/>
<path opacity="0.1" d="M161.531 802.647C161.902 802.647 162.203 802.403 162.203 802.102C162.203 801.801 161.902 801.557 161.531 801.557C161.16 801.557 160.859 801.801 160.859 802.102C160.859 802.403 161.16 802.647 161.531 802.647Z" fill="black"/>
<path d="M161.531 802.425C161.902 802.425 162.203 802.181 162.203 801.88C162.203 801.579 161.902 801.335 161.531 801.335C161.16 801.335 160.859 801.579 160.859 801.88C160.859 802.181 161.16 802.425 161.531 802.425Z" fill="#3F3D56"/>
<path d="M177.019 816.12C177.019 816.12 177.477 816.678 177.019 816.938C176.562 817.198 177.064 817.828 177.064 817.828C177.064 817.828 175.922 818.371 176.425 818.86C176.927 819.348 176.609 821.554 176.609 821.554L175.235 823.399C175.235 823.399 175.317 824.588 175.322 826.195C175.322 828.702 175.141 832.226 174.135 833.833L174.275 847.016C174.275 847.016 169.464 848.441 165.438 848.007L164.84 826.853C164.84 826.853 165.711 814.857 166.032 812.556C166.22 811.361 166.297 810.157 166.261 808.953C166.261 808.953 166.124 805.351 165.664 803.68C165.664 803.68 165.166 796.44 165.117 794.435C165.094 793.476 165.156 790.679 165.226 788.018C165.303 785.109 165.39 782.366 165.39 782.366L164.482 776.537C164.482 776.537 165.39 776.462 165.664 776.759C165.787 776.852 165.92 776.935 166.062 777.007C167.63 777.867 173.17 780.511 173.17 780.511C173.17 780.511 176.236 781.5 176.97 782.917C177.704 784.334 178.214 785.34 178.57 785.743C178.926 786.147 179.12 788.044 179.12 788.044C179.12 788.044 180.175 791.537 180.999 792.128C181.822 792.719 182.425 796.482 182.425 796.482L175.146 801.125C175.146 801.125 174.506 808.848 174.369 809.146C174.232 809.445 177.019 816.12 177.019 816.12Z" fill="white"/>
<path d="M177.296 816.12C177.296 816.12 177.751 816.677 177.296 816.938C176.841 817.198 177.338 817.828 177.338 817.828C177.338 817.828 176.204 818.377 176.701 818.866C177.199 819.354 176.885 821.56 176.885 821.56L175.512 823.405C175.512 823.405 175.594 824.594 175.601 826.201C175.601 828.708 175.42 832.232 174.414 833.839L174.551 847.022C174.551 847.022 169.733 848.447 165.712 848.013L165.117 826.859C165.117 826.859 165.988 814.863 166.309 812.562C166.497 811.367 166.573 810.162 166.535 808.958C166.535 808.958 166.398 805.357 165.941 803.686C165.941 803.686 165.443 796.445 165.391 794.441C165.368 793.482 165.433 790.685 165.5 788.024C165.577 785.115 165.664 782.372 165.664 782.372L164.465 776.464C164.465 776.464 165.664 776.464 165.941 776.765C166.062 776.859 166.196 776.942 166.339 777.013C167.907 777.873 173.449 780.517 173.449 780.517C173.449 780.517 176.512 781.506 177.246 782.923C177.98 784.34 178.491 785.345 178.849 785.749C179.207 786.153 179.396 788.05 179.396 788.05C179.396 788.05 180.452 791.542 181.275 792.134C182.099 792.725 182.694 796.48 182.694 796.48L175.415 801.122C175.415 801.122 174.775 808.845 174.636 809.144C174.496 809.443 177.296 816.12 177.296 816.12Z" fill="white"/>
<path opacity="0.1" d="M168.578 784.086L169.235 785.641L165.776 788.466C165.853 785.56 165.94 782.815 165.94 782.815L164.741 776.906C164.741 776.906 165.94 776.906 166.216 777.207C166.338 777.301 166.471 777.383 166.615 777.453L169.556 784.337L168.578 784.086Z" fill="black"/>
<path d="M168.302 783.64L168.962 785.194L165.503 788.02C165.58 785.111 165.667 782.368 165.667 782.368L164.465 776.46C164.465 776.46 165.667 776.46 165.941 776.761C166.063 776.854 166.196 776.937 166.339 777.009L169.283 783.89L168.302 783.64Z" fill="white"/>
<path opacity="0.1" d="M168.302 768.261C168.304 768.988 168.163 769.711 167.884 770.403C167.837 770.409 167.789 770.407 167.743 770.397C167.697 770.388 167.653 770.371 167.615 770.348C167.551 768.531 166.448 766.826 165.092 765.374C164.711 764.936 164.249 764.548 163.723 764.224C163.191 763.9 162.529 763.748 161.867 763.798C161.12 763.881 160.461 764.292 159.707 764.345C158.711 764.412 157.82 763.852 156.832 763.824C156.431 763.827 156.034 763.9 155.67 764.037C155.306 764.174 154.982 764.373 154.719 764.619C154.2 765.117 153.815 765.698 153.587 766.323C153.196 767.272 152.983 768.262 152.955 769.262C152.943 769.827 152.875 770.536 152.228 770.742C152.277 770.326 152.219 769.907 152.057 769.51C151.896 769.114 151.635 768.749 151.29 768.439L151.275 768.426C151.275 768.37 151.275 768.317 151.275 768.261C151.256 767.344 151.462 766.433 151.881 765.581C152.3 764.73 152.924 763.954 153.717 763.3C154.51 762.646 155.455 762.127 156.497 761.773C157.54 761.418 158.659 761.235 159.79 761.235C160.92 761.235 162.04 761.418 163.082 761.773C164.125 762.127 165.07 762.646 165.863 763.3C166.655 763.954 167.28 764.73 167.699 765.581C168.118 766.433 168.324 767.344 168.305 768.261H168.302Z" fill="black"/>
<path d="M163.315 757.294C162.022 756.801 160.551 756.707 159.179 757.032C158.49 757.197 157.84 757.466 157.141 757.601C155.648 757.894 153.906 757.577 152.624 758.285C151.912 758.689 151.484 759.327 151.086 759.947L150.091 761.485C149.548 762.326 149.001 763.182 148.774 764.109C148.548 765.035 148.685 766.073 149.409 766.818C149.936 767.361 150.715 767.702 151.288 768.212C151.631 768.523 151.891 768.888 152.052 769.284C152.213 769.68 152.271 770.098 152.223 770.514C152.873 770.312 152.935 769.601 152.95 769.036C152.978 768.036 153.191 767.045 153.582 766.097C153.809 765.471 154.195 764.891 154.715 764.393C154.977 764.147 155.301 763.948 155.665 763.811C156.03 763.674 156.426 763.601 156.827 763.598C157.823 763.626 158.716 764.183 159.702 764.117C160.448 764.066 161.11 763.653 161.862 763.572C162.524 763.521 163.187 763.673 163.718 763.998C164.244 764.322 164.705 764.71 165.084 765.148C166.443 766.6 167.546 768.301 167.61 770.122C167.892 770.29 168.297 770.072 168.437 769.813C168.576 769.555 168.581 769.252 168.758 769.006C168.962 768.721 169.352 768.57 169.659 768.356C170.435 767.813 170.629 766.898 170.599 766.069C170.569 765.239 170.37 764.397 170.564 763.582C170.681 763.081 170.945 762.613 171.089 762.118C171.234 761.624 171.251 761.069 170.91 760.643C170.413 760.017 169.365 759.894 168.452 759.835C167.414 759.763 166.486 759.856 165.824 759.147C165.513 758.777 165.163 758.43 164.778 758.11C164.646 758.005 163.315 757.339 163.315 757.294Z" fill="#512E4E"/>
<path opacity="0.1" d="M136.267 799.861L133.666 795.961L132.842 801.978C132.842 801.978 133.3 804.651 133.208 805.061C133.116 805.47 135.085 809.144 135.085 809.144C135.085 809.144 141.587 818.538 144.243 819.023L153.214 813.823L150.835 811.373C150.835 811.373 150.011 811.112 149.805 811.373C149.805 811.373 145.387 805.208 144.929 804.762C144.471 804.316 144.561 803.426 144.561 803.426C144.561 803.426 143.874 802.832 144.103 802.275C144.332 801.718 142.777 799.786 142.777 799.786L144.195 798.71L136.267 799.861Z" fill="black"/>
<path d="M133.803 795.518L133.116 795.962L132.292 801.979C132.292 801.979 132.75 804.652 132.658 805.061C132.566 805.471 134.537 809.145 134.537 809.145C134.537 809.145 141.037 818.539 143.692 819.024L152.666 813.824L150.285 811.373C150.285 811.373 149.461 811.113 149.254 811.373C149.254 811.373 144.837 805.209 144.379 804.763C143.921 804.316 144.013 803.426 144.013 803.426C144.013 803.426 143.326 802.833 143.555 802.276C143.784 801.719 142.226 799.787 142.226 799.787L143.645 798.711L133.803 795.518Z" fill="white"/>
<path opacity="0.1" d="M176.425 819.09C176.923 819.581 176.609 821.783 176.609 821.783L175.235 823.628C175.235 823.628 175.317 824.819 175.322 826.424L173.013 827.009C172.804 827.062 172.583 827.073 172.368 827.043C172.152 827.012 171.949 826.94 171.775 826.833C171.601 826.726 171.461 826.586 171.367 826.426C171.272 826.266 171.227 826.09 171.234 825.913L171.632 815.495L177.02 817.166C176.562 817.425 177.064 818.059 177.064 818.059C177.064 818.059 175.922 818.6 176.425 819.09Z" fill="black"/>
<path d="M176.701 818.865C177.199 819.356 176.885 821.56 176.885 821.56L175.512 823.405C175.512 823.405 175.594 824.594 175.601 826.201L173.249 826.796C173.045 826.848 172.828 826.859 172.618 826.829C172.407 826.799 172.208 826.728 172.038 826.623C171.867 826.518 171.73 826.382 171.638 826.225C171.546 826.068 171.501 825.896 171.507 825.722L171.908 815.272L177.298 816.944C176.838 817.202 177.341 817.834 177.341 817.834C177.341 817.834 176.203 818.377 176.701 818.865Z" fill="white"/>
<path d="M178.486 813.9C178.486 813.9 178.12 815.795 177.204 815.906C176.288 816.017 175.877 818.972 174.964 818.867C174.051 818.762 174.656 816.12 174.688 815.608C174.72 815.095 173.693 812.971 174.461 812.489C175.23 812.006 177.664 812.489 177.664 812.489L178.486 813.9Z" fill="#CF6F80"/>
<path opacity="0.1" d="M180.434 799.304L182.161 796.479C182.161 796.479 182.848 798.632 182.848 799.783C182.848 800.933 183.808 801.046 183.808 801.046C183.808 801.046 184.861 802.056 184.306 802.791C183.751 803.525 183.527 805.354 183.527 805.354C183.527 805.354 183.709 808.844 182.885 809.327C182.061 809.809 181.89 810.962 181.89 810.962C181.89 810.962 180.377 813.152 180.424 813.673C180.471 814.193 178.318 817.72 178.318 817.72C178.318 817.72 179.371 813.337 173.237 811.444C173.237 811.444 173.189 809.956 173.647 809.549C174.105 809.141 174.819 808.955 174.372 806.894C173.924 804.833 174.242 802.371 174.242 801.876C174.242 801.382 175.616 798.297 175.616 798.297L180.434 799.304Z" fill="black"/>
<path d="M181.181 796.074L182.689 796.478C182.689 796.478 183.378 798.632 183.378 799.782C183.378 800.933 184.339 801.046 184.339 801.046C184.339 801.046 185.391 802.055 184.836 802.79C184.281 803.525 184.06 805.353 184.06 805.353C184.06 805.353 184.242 808.844 183.418 809.326C182.594 809.808 182.41 810.961 182.41 810.961C182.41 810.961 180.899 813.151 180.947 813.672C180.994 814.193 178.839 817.719 178.839 817.719C178.839 817.719 179.894 813.337 173.757 811.443C173.757 811.443 173.712 809.956 174.17 809.548C174.628 809.14 175.342 808.955 174.894 806.894C174.446 804.833 174.765 802.37 174.765 801.876C174.765 801.381 176.139 798.297 176.139 798.297L181.181 796.074Z" fill="white"/>
<path opacity="0.1" d="M147.871 869.321C147.871 869.321 150.275 868.096 151.852 868.986C153.43 869.876 147.871 869.321 147.871 869.321Z" fill="black"/>
<path opacity="0.1" d="M166.55 865.532C166.55 865.532 168.678 865.31 170.465 866.871C172.252 868.431 166.55 865.532 166.55 865.532Z" fill="black"/>
<g opacity="0.1">
<path opacity="0.1" d="M169.664 767.914C169.357 768.128 168.964 768.281 168.76 768.566C168.586 768.81 168.581 769.111 168.442 769.373C168.302 769.635 167.897 769.849 167.615 769.684C167.551 767.867 166.446 766.162 165.089 764.708C164.71 764.27 164.249 763.881 163.723 763.558C163.191 763.233 162.528 763.081 161.864 763.132C161.118 763.214 160.461 763.626 159.707 763.677C158.711 763.745 157.818 763.186 156.83 763.158C156.428 763.161 156.032 763.234 155.668 763.371C155.304 763.509 154.981 763.708 154.72 763.955C154.2 764.452 153.814 765.032 153.587 765.657C153.196 766.605 152.983 767.596 152.955 768.596C152.94 769.159 152.875 769.862 152.233 770.071C152.248 770.221 152.248 770.37 152.233 770.52C152.88 770.318 152.945 769.607 152.96 769.042C152.988 768.042 153.201 767.051 153.592 766.103C153.819 765.477 154.205 764.897 154.724 764.399C154.986 764.153 155.31 763.954 155.674 763.817C156.038 763.68 156.434 763.607 156.835 763.604C157.83 763.632 158.726 764.189 159.712 764.123C160.458 764.072 161.12 763.659 161.869 763.578C162.533 763.527 163.196 763.679 163.728 764.004C164.254 764.327 164.715 764.716 165.094 765.154C166.451 766.606 167.556 768.307 167.62 770.128C167.902 770.295 168.307 770.077 168.447 769.819C168.586 769.561 168.591 769.258 168.765 769.012C168.969 768.727 169.362 768.576 169.669 768.362C170.445 767.819 170.639 766.904 170.609 766.075C170.609 766.048 170.609 766.022 170.609 765.998C170.562 766.717 170.326 767.449 169.664 767.914Z" fill="black"/>
<path opacity="0.1" d="M151.293 767.77C150.72 767.259 149.939 766.918 149.414 766.377C148.972 765.898 148.719 765.321 148.69 764.724C148.611 765.471 148.868 766.216 149.414 766.821C149.939 767.364 150.72 767.705 151.293 768.216C151.842 768.715 152.172 769.348 152.231 770.016C152.269 769.61 152.205 769.201 152.044 768.815C151.883 768.429 151.627 768.074 151.293 767.77Z" fill="black"/>
<path opacity="0.1" d="M171.094 761.676C170.948 762.171 170.686 762.641 170.567 763.139C170.496 763.473 170.47 763.811 170.49 764.149C170.498 763.956 170.524 763.765 170.567 763.575C170.686 763.075 170.948 762.607 171.094 762.112C171.18 761.839 171.208 761.557 171.177 761.276C171.161 761.411 171.134 761.545 171.094 761.676Z" fill="black"/>
</g>
<path opacity="0.1" d="M103.031 877.529C116.423 877.529 127.28 876.115 127.28 874.37C127.28 872.625 116.423 871.211 103.031 871.211C89.6388 871.211 78.7822 872.625 78.7822 874.37C78.7822 876.115 89.6388 877.529 103.031 877.529Z" fill="#6C63FF"/>
<path d="M103.813 813.854H102.252V842.349H103.813V813.854Z" fill="#3F3D56"/>
<path d="M113.618 842.263L113.521 843.547L113.381 845.363L113.324 846.118L113.187 847.935L113.128 848.69L112.988 850.507L111.415 871.11C111.347 871.996 110.865 872.828 110.067 873.437C109.269 874.045 108.215 874.384 107.12 874.384H98.9426C97.8478 874.384 96.7944 874.045 95.9968 873.437C95.1992 872.828 94.7175 871.996 94.6498 871.11L93.0844 850.493L92.9451 848.676L92.8878 847.921L92.7485 846.104L92.6912 845.349L92.5519 843.533L92.4523 842.249C92.435 842.002 92.4802 841.754 92.585 841.522C92.6898 841.289 92.852 841.077 93.0617 840.897C93.2714 840.717 93.5242 840.574 93.8046 840.477C94.0849 840.379 94.3869 840.329 94.6921 840.329H111.418C111.722 840.331 112.022 840.384 112.3 840.484C112.578 840.584 112.828 840.729 113.034 840.91C113.24 841.091 113.398 841.305 113.499 841.537C113.599 841.77 113.64 842.017 113.618 842.263Z" fill="#3F3D56"/>
<path d="M113.52 843.547L113.381 845.358H92.6809L92.5415 843.547H113.52Z" fill="#9D9CB5"/>
<path d="M113.324 846.112L113.187 847.925H92.8776L92.7383 846.112H113.324Z" fill="#9D9CB5"/>
<path d="M113.128 848.682L112.991 850.492H93.0744L92.9351 848.682H113.128Z" fill="#9D9CB5"/>
<path d="M90.1602 824.534C99.246 829.867 103.039 838.208 103.039 838.208C103.039 838.208 92.0888 837.903 83.0005 832.57C73.9121 827.237 70.127 818.898 70.127 818.898C70.127 818.898 81.0718 819.201 90.1602 824.534Z" fill="#13F1FC"/>
<path d="M70.1196 818.898C70.1196 818.898 81.4875 824.015 85.1333 828.252C88.7791 832.489 103.039 838.208 103.039 838.208" stroke="#3F3D56" stroke-width="2" stroke-miterlimit="10"/>
<path d="M96.0256 813.791C100.97 816.691 103.039 821.231 103.039 821.231C103.039 821.231 97.0783 821.066 92.131 818.165C87.1837 815.264 85.1206 810.723 85.1206 810.723C85.1206 810.723 91.0783 810.888 96.0256 813.791Z" fill="#13F1FC"/>
<path d="M85.1206 810.723C85.1206 810.723 91.3073 813.508 93.2907 815.813C95.2741 818.119 103.039 821.231 103.039 821.231" stroke="#3F3D56" stroke-width="2" stroke-miterlimit="10"/>
<path d="M110.218 821.001C104.537 826.066 103.335 832.684 103.335 832.684C103.335 832.684 111.346 831.09 117.022 826.023C122.699 820.957 123.906 814.34 123.906 814.34C123.906 814.34 115.9 815.937 110.218 821.001Z" fill="#13F1FC"/>
<path d="M123.911 814.342C123.911 814.342 116.51 819.534 114.628 823.11C112.747 826.687 103.335 832.684 103.335 832.684" stroke="#3F3D56" stroke-width="2" stroke-miterlimit="10"/>
<path d="M318.777 819.219C318.777 819.219 314.669 802.638 316.242 800.576C316.242 800.576 316.299 798.658 316.204 796.213C316.204 796.121 316.204 796.028 316.204 795.933C316.481 796.083 316.769 796.217 317.068 796.337C318.517 796.94 320.181 797.115 321.771 796.829L320.527 795.705C320.228 795.436 319.917 795.146 319.853 794.79C319.788 794.435 319.967 794.118 320.121 793.801C321.303 791.379 321.366 788.333 319.089 786.484C317.165 784.93 316.697 782.923 314.609 781.504C313.084 780.465 312.245 778.941 311.454 777.467C310.784 776.222 310.11 774.966 309.726 773.646C309.428 772.615 309.308 771.547 308.898 770.54C308.487 769.532 307.718 768.553 306.516 768.103C306.088 767.944 305.613 767.853 305.222 767.641C304.709 767.36 304.401 766.904 304.03 766.504C302.146 764.486 295.838 765.675 292.851 766.494C292.039 766.701 291.288 767.039 290.641 767.487L290.669 767.451C290.691 767.421 290.719 767.391 290.743 767.36C290.417 767.575 290.134 767.83 289.907 768.117C289.472 768.676 289.29 769.328 288.927 769.934C288.489 770.651 286.052 772.651 287.1 773.456C287.174 773.51 287.258 773.554 287.349 773.586C287.742 773.718 288.175 773.753 288.593 773.686L288.548 773.773C288.191 774.484 288.007 775.244 288.008 776.012C288.008 779.328 291.38 782.017 295.544 782.017C296.327 782.018 297.105 781.92 297.851 781.728C297.868 781.805 297.883 781.882 297.901 781.958C297.901 781.989 297.913 782.019 297.918 782.049L297.786 782.199C297.78 782.189 297.772 782.181 297.764 782.172L293.857 786.601C293.259 786.942 289.82 788.961 289.626 790.475C289.422 792.132 289.218 794.072 289.218 794.072L289.191 794.488C289.02 794.603 288.82 794.688 288.605 794.735C288.39 794.782 288.166 794.79 287.946 794.76C286.727 794.599 286.727 798.393 286.727 798.393C286.727 798.393 285.916 798.999 285.358 798.474C284.801 797.949 283.327 799.728 283.327 799.728L274.095 800.051L273.883 800.061L273.385 798.811C273.332 798.68 273.216 798.57 273.064 798.507C272.912 798.444 272.735 798.432 272.572 798.474C272.533 798.485 272.496 798.497 272.46 798.513L272.425 798.529L272.36 798.565L272.328 798.589C272.31 798.602 272.293 798.617 272.278 798.632L272.248 798.66L272.233 798.672C272.176 798.736 272.138 798.811 272.122 798.889C272.107 798.968 272.114 799.048 272.144 799.124L272.572 800.196C270.79 800.487 268.968 801.306 270.454 803.563L262.923 802.435L265.36 804.094L277.937 806.199C277.77 806.441 277.88 806.793 278.4 807.287C280.64 809.421 284.721 810 286.363 810.15C286.797 810.937 287.339 811.681 287.979 812.37L287.837 814.495C287.837 814.495 283.678 830.696 282.917 831.518C283.301 831.165 283.653 830.789 283.969 830.394C282.762 833.722 281.075 838.278 280.632 838.96C279.92 840.05 279.261 844.461 280.072 844.743C280.321 844.83 281.033 844.788 282.048 844.725V845.091L282.003 858.936C282.003 858.936 282.208 867.428 281.648 868.237C281.088 869.047 280.938 870.744 280.938 870.744C280.938 870.744 278.699 874.093 276.924 875.44C276.912 875.45 276.899 875.459 276.884 875.468L276.83 875.153C276.83 875.153 274.697 877.337 269.979 877.214C269.979 877.214 267.139 878.712 271.35 878.792C275.56 878.873 280.938 878.671 280.938 878.671C280.938 878.671 284.694 874.029 287.839 874.634V878.152H288.802V874.578C289.249 874.339 289.631 874.03 289.926 873.668C290.221 873.306 290.422 872.899 290.517 872.472C290.599 872.032 290.539 871.583 290.342 871.167C290.144 870.752 289.817 870.386 289.392 870.104C289.201 869.964 289.048 869.794 288.942 869.604C288.836 869.413 288.78 869.207 288.777 868.998L288.743 869.023C288.743 868.952 288.72 868.879 288.71 868.805C288.434 866.988 288.088 863.239 289.31 860.466C290.985 856.663 291.492 851.366 290.273 848.213C289.88 847.205 289.556 846.18 289.305 845.143C289.275 845.012 289.248 844.887 289.223 844.77C290.056 844.861 290.882 844.996 291.694 845.173C294.519 845.805 300.698 845.922 305.974 845.888C305.986 846.005 306.001 846.128 306.018 846.251C306.112 847.107 306.309 847.954 306.606 848.779C307.268 850.393 307.571 857.513 307.571 857.513C307.571 857.513 308.425 863.367 307.96 865.748C307.711 867.073 307.462 868.403 307.32 869.739V869.765C307.32 869.765 305.921 872.995 304.899 874.749C304.874 874.794 304.846 874.838 304.821 874.88C304.549 874.901 304.28 874.949 304.023 875.024C304.023 875.024 302.651 877.244 301.285 877.611C299.919 877.979 300.372 879.188 303.465 878.744C306.558 878.3 311.23 877.936 311.23 877.936L311.431 875.672L312.382 874.707L312.133 876.966L313.146 876.804L313.011 874.057L314.567 872.478C314.567 872.478 316.446 871.122 313.653 868.453V868.512C313.624 868.474 313.596 868.433 313.564 868.395V868.383C313.101 867.801 312.733 866.717 313.407 864.794C314.626 861.318 315.336 858.163 315.336 858.163C315.336 858.163 318.058 849.711 314.786 845.712H314.93C314.595 845.15 314.358 844.552 314.226 843.936C314.209 843.863 314.194 843.789 314.181 843.712C316.602 843.599 318.979 843.244 320.918 842.477C320.91 842.469 319.743 822.412 318.777 819.219ZM288.036 805.23V805.271L287.538 805.291L288.036 805.23ZM286.329 805.422C286.247 805.437 286.17 805.466 286.105 805.509C285.891 805.754 285.756 806.04 285.714 806.339L284.937 806.197C284.937 806.197 284.392 806.102 283.609 805.995L283.238 805.693C284.258 805.624 285.318 805.523 286.329 805.422Z" fill="url(#paint2_linear_176_547)"/>
<path d="M312.019 874.085L311.723 876.946L312.716 876.784L312.566 873.682L312.019 874.085Z" fill="#1D2366"/>
<path d="M289.365 860.504C288.168 863.27 288.506 867.002 288.775 868.815C288.875 869.485 288.967 869.893 288.967 869.893C288.967 869.893 287.177 873.199 287.028 873.324C286.879 873.449 281.762 875.982 281.762 875.982L278.186 877.676C278.186 877.676 274.558 876.386 276.297 875.942C276.653 875.826 276.973 875.649 277.235 875.423C278.977 874.081 281.165 870.744 281.165 870.744C281.165 870.744 281.314 869.051 281.862 868.245C282.409 867.44 282.21 858.976 282.21 858.976L282.252 845.179V843.381L289.059 843.421C289.102 844.032 289.2 844.639 289.352 845.238C289.597 846.272 289.913 847.293 290.301 848.298C291.5 851.445 291.002 856.715 289.365 860.504Z" fill="#FFB0B1"/>
<path opacity="0.1" d="M288.967 869.893C288.967 869.893 287.177 873.2 287.028 873.325C286.879 873.45 281.762 875.983 281.762 875.983L278.186 877.677C278.186 877.677 274.558 876.387 276.297 875.943C276.653 875.827 276.973 875.65 277.235 875.424L277.39 876.306L278.582 876.266L288.785 868.819C288.875 869.485 288.967 869.893 288.967 869.893Z" fill="black"/>
<path d="M288.842 869.007L278.582 876.504L277.39 876.544L277.141 875.131C277.141 875.131 275.056 877.307 270.422 877.186C270.422 877.186 267.64 878.678 271.763 878.758C275.887 878.839 281.153 878.637 281.153 878.637C281.153 878.637 284.831 873.995 287.909 874.6V878.106H288.855V874.568C289.294 874.328 289.67 874.018 289.958 873.657C290.246 873.297 290.442 872.892 290.532 872.469C290.614 872.032 290.556 871.586 290.364 871.173C290.172 870.76 289.852 870.395 289.435 870.111C289.248 869.969 289.1 869.798 288.998 869.609C288.896 869.419 288.843 869.214 288.842 869.007Z" fill="#1D2366"/>
<path d="M312.964 864.816C312.303 866.733 312.663 867.813 313.116 868.393V868.405C313.697 869.12 314.101 869.92 314.306 870.76L314.346 870.942L309.677 876.463L307.144 877.27C307.144 877.27 303.07 876.142 303.814 875.819C304.001 875.74 304.292 875.32 304.625 874.741C305.621 872.995 306.994 869.773 306.994 869.773V869.747C307.139 868.417 307.368 867.091 307.621 865.771C308.077 863.395 307.241 857.563 307.241 857.563C307.241 857.563 306.942 850.472 306.295 848.859C306.003 848.039 305.809 847.198 305.715 846.348C305.581 845.339 305.551 844.507 305.551 844.507C305.551 844.507 308.234 841.479 313.151 844.749C313.544 845.01 313.89 845.315 314.179 845.654C317.576 849.574 314.841 858.209 314.841 858.209C314.841 858.209 314.157 861.35 312.964 864.816Z" fill="#FFB0B1"/>
<path opacity="0.1" d="M314.353 870.943L309.684 876.463L307.151 877.271C307.151 877.271 303.077 876.142 303.821 875.819C304.008 875.741 304.299 875.321 304.633 874.742C306.357 874.729 307.251 876.062 307.251 876.062L309.436 875.779C309.436 875.779 312.317 871.185 312.964 870.904C313.611 870.624 313.064 868.807 313.064 868.807V868.345C313.081 868.361 313.096 868.379 313.116 868.395V868.407C313.697 869.123 314.101 869.923 314.306 870.763L314.353 870.943Z" fill="black"/>
<path d="M307.4 876.181C307.4 876.181 306.156 874.328 303.772 875.012C303.772 875.012 302.43 877.232 301.089 877.592C299.748 877.951 300.195 879.162 303.227 878.72C306.258 878.278 310.827 877.913 310.827 877.913L311.026 875.654L314.107 872.471C314.107 872.471 315.943 871.12 313.211 868.462V868.924C313.211 868.924 313.758 870.741 313.111 871.021C312.464 871.302 309.592 875.898 309.592 875.898L307.4 876.181Z" fill="#1D2366"/>
<path opacity="0.1" d="M289.066 843.417C289.109 844.028 289.207 844.635 289.36 845.234C286.558 844.901 283.957 845.066 282.252 845.175V843.377L289.066 843.417Z" fill="black"/>
<path opacity="0.1" d="M314.455 846.156C314.455 846.156 310.473 846.314 305.725 846.346C305.59 845.337 305.561 844.505 305.561 844.505C305.561 844.505 308.243 841.477 313.161 844.747C313.554 845.008 313.9 845.313 314.188 845.652C314.266 845.824 314.355 845.992 314.455 846.156Z" fill="black"/>
<path d="M314.455 845.794C314.455 845.794 297.015 846.478 291.699 845.269C286.384 844.06 281.115 845.107 280.321 844.827C279.528 844.546 280.172 840.152 280.869 839.064C281.566 837.976 285.388 826.973 285.388 826.973L289.066 811.418L292.941 810.552L293.215 810.489L299.966 808.979L304.914 807.871C304.914 807.871 314.751 839.023 313.907 841.32C313.601 842.2 313.552 843.126 313.763 844.023C313.892 844.636 314.125 845.232 314.455 845.794Z" fill="#1D2366"/>
<path d="M276.245 800.779C276.245 800.779 272.761 803.807 275.399 805.495C278.037 807.182 279.771 805.656 279.771 805.656L276.245 800.779Z" fill="#C7DAF5"/>
<path opacity="0.1" d="M276.245 800.779C276.245 800.779 272.761 803.807 275.399 805.495C278.037 807.182 279.771 805.656 279.771 805.656L276.245 800.779Z" fill="black"/>
<path d="M304.394 780.873C304.394 780.873 303.986 781.188 303.371 781.652C302.495 782.316 301.198 783.287 300.049 784.1C298.456 785.225 297.142 786.05 297.612 785.346C298.083 784.641 297.993 783.414 297.759 782.265C297.742 782.189 297.727 782.112 297.709 782.037C297.516 781.194 297.259 780.361 296.94 779.542C296.94 779.542 299.514 776.846 300.937 775.782C301.467 775.378 301.838 775.213 301.86 775.493C301.885 775.871 302.234 776.704 302.667 777.588C302.679 777.617 302.692 777.643 302.707 777.671C302.995 778.277 303.321 778.898 303.607 779.435C304.045 780.259 304.394 780.873 304.394 780.873Z" fill="#FFB0B1"/>
<path opacity="0.1" d="M302.707 777.671C302.465 778.726 301.878 779.709 301.008 780.517C300.137 781.325 299.015 781.929 297.759 782.265C297.561 781.344 297.288 780.434 296.94 779.542C296.94 779.542 301.786 774.465 301.86 775.493C301.878 775.882 302.256 776.746 302.707 777.671Z" fill="black"/>
<path opacity="0.1" d="M297.276 783.622L297.903 782.905C297.903 782.905 298.319 784.96 299.847 784.054C301.375 783.148 301.45 790.875 301.45 790.875L299.81 810.763L287.959 810.188L288.295 800.578L289.636 795.733L292.954 788.69L294.927 786.363L297.276 783.622Z" fill="black"/>
<path d="M301.45 790.998L299.956 808.981L299.8 810.887L293.192 810.566L292.944 810.554L287.966 810.311L288.302 800.699L289.644 795.855L292.961 788.812L294.934 786.484L297.284 783.733L297.911 783.019C297.911 783.019 298.326 785.073 299.854 784.167L299.887 784.149C301.38 783.382 301.45 790.998 301.45 790.998Z" fill="#1D2366"/>
<path d="M289.81 794.171C289.81 794.171 289.216 795.18 288.021 795.017C286.826 794.853 286.829 798.65 286.829 798.65C286.829 798.65 286.035 799.256 285.488 798.731C284.94 798.206 283.497 799.98 283.497 799.98L274.453 800.303C274.453 800.303 278.477 801.795 277.688 806.308C277.688 806.308 291.351 805.622 291.799 804.575C292.247 803.527 289.81 794.171 289.81 794.171Z" fill="white"/>
<path opacity="0.03" d="M289.81 794.171C289.81 794.171 289.216 795.18 288.021 795.017C286.826 794.853 286.829 798.65 286.829 798.65C286.829 798.65 286.035 799.256 285.488 798.731C284.94 798.206 283.497 799.98 283.497 799.98L274.453 800.303C274.453 800.303 278.477 801.795 277.688 806.308C277.688 806.308 291.351 805.622 291.799 804.575C292.247 803.527 289.81 794.171 289.81 794.171Z" fill="black"/>
<path d="M263.528 802.675L265.912 804.326L285.537 807.671L283.104 805.656L263.528 802.675Z" fill="white"/>
<path d="M297.313 784.257C296.987 784.661 296.054 786.728 295.275 788.533C294.626 790.037 294.083 791.359 294.083 791.359C294.083 791.359 292.816 798.048 292.169 799.257C291.522 800.466 291.873 805.182 291.873 805.182L289.462 816.827C289.462 816.827 288.369 822.832 286.682 826.419C285.017 829.949 283.163 831.605 283.106 831.657C283.853 830.838 287.921 814.701 287.921 814.701L289.265 794.35C289.265 794.35 289.462 792.416 289.661 790.763C289.86 789.11 293.892 786.853 293.892 786.853L297.779 782.37C298.169 782.794 297.908 783.533 297.313 784.257Z" fill="white"/>
<path d="M287.177 810.412C287.177 810.412 281.454 810.21 278.681 807.51C275.909 804.809 285.089 806.432 285.089 806.432L287.476 806.876L287.177 810.412Z" fill="#FFB0B1"/>
<path opacity="0.1" d="M313.907 841.322C313.601 842.202 313.552 843.127 313.763 844.025C307.519 844.384 300.84 843.016 300.84 843.016C299.595 843.944 296.318 845.313 296.318 845.313L294.531 827.348C293.389 824.925 292.941 812.235 292.941 812.235C292.941 812.235 293.043 811.571 293.19 810.576C293.19 810.551 293.19 810.525 293.202 810.501C293.648 807.721 294.531 802.503 294.964 801.799C295.561 800.83 293.128 798.252 293.128 798.252L294.235 790.592L294.369 789.667C296.704 788.822 298.493 786.121 298.493 786.121L299.867 784.169C301.36 783.392 301.437 791.008 301.437 791.008L299.944 808.991L304.891 807.883C304.891 807.883 314.751 839.025 313.907 841.322Z" fill="black"/>
<path d="M320.316 842.563C313.509 845.304 301.139 842.765 301.139 842.765C299.894 843.693 296.617 845.062 296.617 845.062L294.827 827.097C293.688 824.675 293.24 811.984 293.24 811.984C293.24 811.984 294.678 802.515 295.275 801.548C295.45 801.266 295.365 800.846 295.158 800.394C294.143 798.241 293.769 795.925 294.068 793.633L294.546 790.341L294.678 789.419C297.015 788.571 298.804 785.87 298.804 785.87L300.049 784.102L302.338 780.844L303.423 779.302L303.607 779.437L305.013 780.47C305.013 780.47 305.611 780.874 306.506 781.48C308.455 782.812 311.822 785.158 313.559 786.593C315.087 787.856 315.57 792.772 315.709 796.472C315.801 798.908 315.747 800.817 315.747 800.817C314.206 802.874 318.235 819.388 318.235 819.388C319.173 822.579 320.316 842.563 320.316 842.563Z" fill="white"/>
<path opacity="0.03" d="M307.25 785.831C307.25 785.831 302.579 793.043 303.122 795.784C303.664 798.525 305.207 801.628 304.463 802.352C304.208 802.627 303.877 802.85 303.498 803.004C303.118 803.157 302.7 803.238 302.276 803.239C301.529 803.279 299.538 804.407 299.538 804.528C299.538 804.65 297.699 804.65 296.054 805.215C294.409 805.78 291.98 806.101 291.98 806.101C291.98 806.101 287.252 805.98 286.812 806.343C286.371 806.706 285.918 808.88 286.861 810.614C287.805 812.348 288.852 813.642 289.644 813.878C290.435 814.115 295.457 812.75 299.531 812.427C303.605 812.104 308.027 809.486 308.027 809.486C308.027 809.486 312.897 808.073 313.751 805.697C314.604 803.321 312.708 790.263 312.708 790.263C312.708 790.263 311.275 784.177 307.25 785.831Z" fill="black"/>
<path opacity="0.03" d="M306.653 785.225C306.653 785.225 301.982 792.439 302.53 795.178C303.077 797.917 304.615 801.022 303.869 801.748C303.614 802.023 303.284 802.246 302.905 802.4C302.526 802.554 302.108 802.634 301.684 802.635C300.937 802.675 298.946 803.803 298.946 803.924C298.946 804.046 297.107 804.046 295.462 804.609C293.817 805.172 291.388 805.495 291.388 805.495C291.388 805.495 286.66 805.374 286.222 805.737C285.784 806.1 285.326 808.276 286.272 810.008C287.217 811.74 288.263 813.036 289.054 813.272C289.845 813.509 294.867 812.144 298.941 811.823C303.015 811.502 307.437 808.88 307.437 808.88C307.437 808.88 312.305 807.467 313.149 805.093C313.992 802.719 312.106 789.657 312.106 789.657C312.106 789.657 310.678 783.573 306.653 785.225Z" fill="black"/>
<path d="M307.103 785.466C307.103 785.466 302.432 792.681 302.98 795.42C303.527 798.159 305.065 801.264 304.321 801.988C304.066 802.264 303.736 802.487 303.357 802.642C302.977 802.796 302.558 802.876 302.134 802.876C301.387 802.917 299.396 804.045 299.396 804.164C299.396 804.283 297.56 804.285 295.912 804.851C294.265 805.416 291.838 805.737 291.838 805.737C291.838 805.737 287.11 805.616 286.67 805.979C286.229 806.342 285.776 808.518 286.719 810.25C287.662 811.982 288.71 813.278 289.502 813.514C290.293 813.75 295.315 812.386 299.389 812.063C303.463 811.74 307.885 809.122 307.885 809.122C307.885 809.122 312.755 807.709 313.609 805.333C314.462 802.957 312.578 789.899 312.578 789.899C312.578 789.899 311.125 783.823 307.103 785.466Z" fill="white"/>
<path opacity="0.1" d="M307.002 804.817C307.002 804.817 303.269 804.211 304.568 805.221C305.867 806.23 305.86 807.114 307.45 807.074C309.04 807.033 307.002 804.817 307.002 804.817Z" fill="black"/>
<path opacity="0.1" d="M313.31 826.532C313.31 826.532 311.623 827.459 314.851 829.594C318.079 831.73 313.31 826.532 313.31 826.532Z" fill="black"/>
<path opacity="0.1" d="M310.09 834.148C310.09 834.27 309.493 838.589 311.728 839.669C313.962 840.749 310.09 834.148 310.09 834.148Z" fill="black"/>
<path d="M274.608 800.293C272.806 800.343 268.914 800.79 270.932 803.844C272.716 806.546 275.715 804.74 277.402 803.369C276.991 802.091 275.99 800.99 274.608 800.293Z" fill="#FFB0B1"/>
<path d="M277.425 803.345L277.499 803.282L277.425 803.345Z" fill="#FFB0B1"/>
<path opacity="0.1" d="M306.507 781.603C304.595 782.663 302.993 783.557 302.679 783.743C301.823 784.257 300.191 787.279 299.138 788.821C298.299 790.063 295.574 790.382 294.546 790.46L294.678 789.538C297.015 788.69 298.804 785.989 298.804 785.989L303.423 779.421L305.013 780.594C305.013 780.594 305.611 780.997 306.507 781.603Z" fill="black"/>
<path d="M306.507 781.482C304.595 782.542 302.993 783.436 302.679 783.624C301.823 784.136 300.191 787.158 299.138 788.7C298.299 789.942 295.574 790.261 294.546 790.339L294.678 789.417C297.015 788.569 298.804 785.868 298.804 785.868L303.423 779.3L305.013 780.469C305.013 780.469 305.611 780.868 306.507 781.482Z" fill="#DCE7FF"/>
<path d="M302.828 776.339C302.829 777.55 302.376 778.734 301.529 779.732C300.529 780.912 299.04 781.762 297.333 782.128C295.626 782.494 293.814 782.351 292.225 781.726C290.637 781.101 289.377 780.035 288.675 778.721C287.973 777.406 287.874 775.932 288.398 774.564C288.922 773.196 290.032 772.026 291.529 771.266C293.025 770.506 294.808 770.206 296.553 770.42C298.299 770.635 299.892 771.35 301.043 772.436C302.195 773.522 302.828 774.906 302.828 776.339Z" fill="#FFB0B1"/>
<path opacity="0.1" d="M315.709 796.474C314.699 795.969 313.876 795.252 313.328 794.399C312.912 793.732 312.636 792.963 311.927 792.491C311.287 792.067 310.434 791.964 309.637 791.774C307.019 791.147 304.824 789.209 304.742 786.996C304.702 785.955 305.103 784.915 304.921 783.884C304.818 783.3 304.532 782.748 304.09 782.279C303.871 782.055 303.63 781.845 303.371 781.651C303.023 781.385 302.657 781.127 302.338 780.844C302.137 780.669 301.962 780.476 301.816 780.269C301.697 780.099 301.601 779.92 301.529 779.734C301.032 778.498 301.485 777.033 300.937 775.783L300.907 775.715C300.701 775.271 300.28 774.827 299.695 774.792C299.11 774.758 298.61 775.152 298.053 775.327C296.886 775.695 295.626 775.069 294.653 774.431C293.68 773.793 292.583 773.064 291.346 773.206C290.527 773.301 289.88 773.753 289.126 773.987C288.956 774.04 288.78 774.082 288.601 774.11C289.239 772.819 290.412 771.749 291.917 771.083C293.422 770.417 295.167 770.197 296.85 770.461C298.533 770.725 300.051 771.456 301.142 772.529C302.233 773.602 302.829 774.95 302.828 776.341C302.829 776.761 302.775 777.179 302.667 777.59C302.679 777.618 302.692 777.645 302.706 777.673C302.995 778.278 303.321 778.9 303.607 779.437L305.013 780.471C305.013 780.471 305.611 780.874 306.507 781.48C308.455 782.812 311.822 785.158 313.559 786.593C315.087 787.86 315.565 792.774 315.709 796.474Z" fill="black"/>
<path d="M289.039 770.3C289.395 769.713 289.571 769.054 289.997 768.497C290.621 767.69 291.711 767.173 292.831 766.86C295.755 766.043 301.935 764.856 303.781 766.86C304.144 767.264 304.446 767.712 304.948 767.991C305.332 768.203 305.794 768.294 306.215 768.453C307.392 768.901 308.144 769.878 308.544 770.875C308.945 771.872 309.064 772.942 309.358 773.97C309.734 775.288 310.393 776.537 311.05 777.779C311.824 779.244 312.646 780.764 314.139 781.8C316.177 783.213 316.627 785.213 318.519 786.763C320.758 788.604 320.686 791.642 319.531 794.054C319.38 794.371 319.208 794.702 319.268 795.039C319.327 795.376 319.636 795.683 319.927 795.952L321.152 797.072C318.255 797.639 314.977 796.412 313.629 794.258C313.213 793.592 312.937 792.825 312.225 792.351C311.588 791.927 310.732 791.826 309.938 791.636C307.32 791.006 305.125 789.066 305.043 786.854C305.003 785.815 305.404 784.775 305.222 783.746C305.121 783.158 304.834 782.601 304.388 782.131C303.704 781.406 302.671 780.92 302.114 780.112C301.171 778.762 301.887 777.008 301.208 775.558C300.999 775.114 300.581 774.67 299.996 774.636C299.411 774.601 298.911 774.995 298.351 775.171C297.186 775.538 295.927 774.914 294.954 774.274C293.981 773.635 292.884 772.908 291.644 773.051C290.825 773.144 290.181 773.596 289.427 773.832C288.869 774.006 287.74 774.161 287.252 773.78C286.222 773.011 288.608 771.019 289.039 770.3Z" fill="#591D4B"/>
<path opacity="0.1" d="M314.321 793.591C313.903 792.925 313.629 792.158 312.917 791.686C312.28 791.262 311.424 791.159 310.628 790.969C308.012 790.342 305.817 788.402 305.733 786.189C305.693 785.15 306.093 784.108 305.914 783.079C305.81 782.495 305.523 781.942 305.081 781.474C304.394 780.749 303.361 780.263 302.806 779.456C301.863 778.107 302.58 776.353 301.898 774.902C301.691 774.46 301.271 774.016 300.688 773.979C300.106 773.943 299.601 774.341 299.043 774.516C297.879 774.883 296.617 774.258 295.646 773.62C294.676 772.982 293.573 772.253 292.336 772.395C291.518 772.489 290.871 772.942 290.119 773.176C289.562 773.349 288.429 773.507 287.942 773.125C286.916 772.318 289.303 770.33 289.731 769.615C290.087 769.026 290.263 768.37 290.692 767.813C290.714 767.782 290.739 767.752 290.764 767.722C290.444 767.937 290.167 768.192 289.945 768.477C289.519 769.034 289.343 769.688 288.987 770.279C288.556 770.994 286.17 772.988 287.198 773.789C287.695 774.173 288.815 774.016 289.373 773.842C290.119 773.606 290.771 773.154 291.59 773.061C292.834 772.917 293.929 773.646 294.9 774.284C295.87 774.922 297.139 775.548 298.299 775.18C298.857 775.005 299.344 774.609 299.942 774.645C300.539 774.682 300.937 775.124 301.154 775.568C301.833 777.017 301.116 778.771 302.059 780.122C302.617 780.915 303.65 781.411 304.334 782.14C304.779 782.611 305.067 783.167 305.168 783.755C305.349 784.784 304.949 785.824 304.989 786.864C305.071 789.084 307.266 791.016 309.884 791.646C310.672 791.835 311.534 791.936 312.171 792.36C312.885 792.834 313.166 793.602 313.574 794.268C314.923 796.421 318.2 797.649 321.097 797.081L320.52 796.553C318.009 796.583 315.468 795.424 314.321 793.591Z" fill="black"/>
<path opacity="0.1" d="M297.164 784.379C296.838 784.783 295.905 786.85 295.126 788.655C294.397 788.424 293.735 786.957 293.735 786.957L297.622 782.472C298.02 782.916 297.759 783.653 297.164 784.379Z" fill="black"/>
<path d="M297.314 784.258C296.988 784.662 296.054 786.729 295.275 788.533C294.546 788.305 293.884 786.836 293.884 786.836L297.771 782.353C298.17 782.795 297.908 783.533 297.314 784.258Z" fill="#DCE7FF"/>
<path d="M274.712 804.879L272.557 799.367C272.531 799.302 272.522 799.234 272.529 799.167C272.536 799.099 272.559 799.033 272.597 798.973C272.636 798.913 272.688 798.859 272.752 798.816C272.816 798.772 272.89 798.739 272.97 798.719C273.13 798.678 273.304 798.691 273.453 798.753C273.602 798.816 273.715 798.924 273.766 799.054L275.921 804.56L275.707 805.713L274.712 804.879Z" fill="#BE8B87"/>
<path opacity="0.1" d="M272.761 798.882C272.922 798.841 273.096 798.853 273.246 798.916C273.395 798.979 273.508 799.087 273.56 799.217L275.715 804.724L275.553 805.588L275.71 805.721L275.924 804.568L273.756 799.062C273.705 798.932 273.592 798.824 273.443 798.761C273.294 798.698 273.12 798.686 272.96 798.727C272.825 798.762 272.708 798.833 272.629 798.928C272.671 798.91 272.715 798.895 272.761 798.882Z" fill="white"/>
<path d="M274.712 804.879L275.921 804.568L275.745 805.513L275.707 805.721L275.354 805.422L274.712 804.879Z" fill="#EFC8C4"/>
<path d="M275.354 805.423C275.375 805.401 275.401 805.383 275.431 805.37C275.449 805.361 275.469 805.356 275.49 805.356C275.51 805.356 275.531 805.361 275.548 805.37C275.565 805.387 275.579 805.405 275.59 805.425C275.607 805.447 275.629 805.466 275.656 805.48C275.683 805.495 275.713 805.504 275.745 805.507L275.707 805.709L275.354 805.423Z" fill="#727A9C"/>
<path d="M272.544 801.324C272.544 801.324 276.867 801.304 275.849 802.796C274.831 804.287 273.241 804.467 273.241 804.467L272.544 801.324Z" fill="#FFB0B1"/>
<path d="M245.66 734.38H245.473C238.047 734.38 231.48 737.567 227.702 742.27C223.924 737.567 217.357 734.38 209.931 734.38H209.744C204.171 734.423 198.845 736.248 194.921 739.459C190.998 742.67 188.796 747.007 188.793 751.527C188.793 757.141 191.824 765.106 197.734 771.66C208.995 784.149 227.702 795.076 227.702 795.076C227.702 795.076 246.409 784.151 257.667 771.66C263.58 765.106 266.609 757.141 266.609 751.527C266.606 747.007 264.404 742.671 260.481 739.46C256.559 736.249 251.232 734.423 245.66 734.38ZM242.99 772.621C242.144 772.619 241.319 772.409 240.623 772.019C239.927 771.629 239.393 771.078 239.09 770.437H234.65C234.358 770.436 234.074 770.36 233.837 770.221C233.6 770.082 233.422 769.887 233.329 769.662L231.965 766.329L227.65 778.56C227.566 778.795 227.39 779.002 227.149 779.15C226.907 779.297 226.613 779.377 226.311 779.377H226.224C225.909 779.365 225.608 779.265 225.373 779.095C225.137 778.924 224.981 778.693 224.93 778.441L220.483 756.745L217.233 769.583C217.158 769.827 216.985 770.044 216.741 770.199C216.497 770.353 216.196 770.437 215.886 770.437H209.632C209.445 770.444 209.258 770.419 209.082 770.366C208.907 770.312 208.746 770.23 208.611 770.124C208.476 770.019 208.368 769.893 208.294 769.753C208.22 769.613 208.183 769.462 208.183 769.31C208.183 769.158 208.22 769.007 208.294 768.867C208.368 768.727 208.476 768.601 208.611 768.495C208.746 768.39 208.907 768.308 209.082 768.254C209.258 768.2 209.445 768.176 209.632 768.183H214.791L219.395 750.922C219.471 750.667 219.653 750.441 219.912 750.283C220.17 750.124 220.488 750.044 220.811 750.055C221.134 750.066 221.443 750.168 221.684 750.343C221.925 750.518 222.084 750.755 222.133 751.015L226.674 773.146L230.542 762.204C230.622 761.973 230.792 761.77 231.027 761.624C231.262 761.479 231.548 761.399 231.843 761.396H231.871C232.163 761.396 232.448 761.471 232.685 761.61C232.922 761.75 233.098 761.946 233.19 762.171L235.656 768.189H239.035C239.276 767.596 239.713 767.07 240.299 766.666C240.885 766.263 241.597 765.999 242.356 765.903C243.116 765.808 243.893 765.884 244.602 766.124C245.312 766.364 245.925 766.758 246.376 767.263C246.827 767.768 247.096 768.364 247.156 768.986C247.215 769.607 247.061 770.23 246.712 770.785C246.362 771.34 245.83 771.806 245.175 772.132C244.519 772.457 243.766 772.629 242.997 772.629L242.99 772.621Z" fill="#13F1FC"/>
</g>
</g>
<defs>
<linearGradient id="paint0_linear_176_547" x1="-12.0024" y1="-294.389" x2="776.046" y2="-147.484" gradientUnits="userSpaceOnUse">
<stop stop-color="#0470DC"/>
<stop offset="1" stop-color="#13F1FC"/>
</linearGradient>
<linearGradient id="paint1_linear_176_547" x1="158.676" y1="880.412" x2="158.676" y2="756.202" gradientUnits="userSpaceOnUse">
<stop stop-color="#808080" stop-opacity="0.25"/>
<stop offset="0.54" stop-color="#808080" stop-opacity="0.12"/>
<stop offset="1" stop-color="#808080" stop-opacity="0.1"/>
</linearGradient>
<linearGradient id="paint2_linear_176_547" x1="55619.4" y1="94441.7" x2="55619.4" y2="30683.9" gradientUnits="userSpaceOnUse">
<stop stop-color="#808080" stop-opacity="0.25"/>
<stop offset="0.54" stop-color="#808080" stop-opacity="0.12"/>
<stop offset="1" stop-color="#808080" stop-opacity="0.1"/>
</linearGradient>
<clipPath id="clip0_176_547">
<rect width="428" height="965" fill="white"/>
</clipPath>
<clipPath id="clip1_176_547">
<rect width="275" height="158" fill="white" transform="translate(70 724)"/>
</clipPath>
</defs>
</svg>
